<svg width="1484" height="265" viewBox="0 0 1484 265" fill="none" xmlns="http://www.w3.org/2000/svg">
<g clip-path="url(#clip0)">
<ellipse cx="860" cy="173.085" rx="20" ry="20.4834" stroke="#E3CDB1"/>
<mask id="mask0" mask-type="alpha" maskUnits="userSpaceOnUse" x="849" y="164" width="23" height="18">
<path fill-rule="evenodd" clip-rule="evenodd" d="M871.326 173.09V181.232H849.459V173.09V164.948H871.326V173.09Z" fill="white"/>
</mask>
<g mask="url(#mask0)">
<path fill-rule="evenodd" clip-rule="evenodd" d="M858.601 175.146L858.6 169.792L863.464 172.479L858.601 175.146ZM869.279 168.864C869.279 168.864 869.103 167.551 868.564 166.973C867.879 166.214 867.112 166.21 866.76 166.165C864.241 165.973 860.463 165.973 860.463 165.973H860.455C860.455 165.973 856.677 165.973 854.158 166.165C853.806 166.21 853.039 166.214 852.354 166.973C851.815 167.551 851.639 168.864 851.639 168.864C851.639 168.864 851.459 170.406 851.459 171.949V173.394C851.459 174.937 851.639 176.479 851.639 176.479C851.639 176.479 851.815 177.792 852.354 178.37C853.039 179.129 853.938 179.105 854.339 179.185C855.779 179.331 860.459 179.376 860.459 179.376C860.459 179.376 864.241 179.37 866.76 179.178C867.112 179.133 867.879 179.129 868.564 178.37C869.103 177.792 869.279 176.479 869.279 176.479C869.279 176.479 869.459 174.937 869.459 173.394V171.949C869.459 170.406 869.279 168.864 869.279 168.864Z" fill="#E3CDB1"/>
</g>
</g>
<g clip-path="url(#clip1)">
<ellipse cx="800" cy="173.085" rx="20" ry="20.4834" stroke="#E3CDB1"/>
<path fill-rule="evenodd" clip-rule="evenodd" d="M810.08 167.946C809.427 168.245 808.877 168.254 808.293 167.96C809.046 167.498 809.08 167.173 809.352 166.301C808.648 166.729 807.867 167.04 807.037 167.208C806.374 166.484 805.427 166.029 804.379 166.029C802.366 166.029 800.734 167.702 800.734 169.762C800.734 170.054 800.766 170.339 800.828 170.613C797.8 170.457 795.114 168.971 793.317 166.713C793.003 167.264 792.824 167.905 792.824 168.59C792.824 169.885 793.468 171.027 794.444 171.696C793.847 171.676 793.285 171.509 792.795 171.229C792.794 171.245 792.794 171.26 792.794 171.276C792.794 173.085 794.05 174.593 795.718 174.936C795.184 175.085 794.621 175.108 794.071 175.001C794.536 176.483 795.882 177.562 797.476 177.593C795.916 178.844 793.982 179.366 792.08 179.138C793.694 180.196 795.608 180.814 797.667 180.814C804.37 180.814 808.035 175.127 808.035 170.195C808.035 170.032 808.033 169.872 808.025 169.712C808.737 169.186 809.592 168.695 810.08 167.946Z" fill="#E3CDB1"/>
</g>
<g clip-path="url(#clip2)">
<ellipse cx="740" cy="173.085" rx="20" ry="20.4834" stroke="#E3CDB1"/>
<mask id="mask1" mask-type="alpha" maskUnits="userSpaceOnUse" x="731" y="163" width="18" height="20">
<path fill-rule="evenodd" clip-rule="evenodd" d="M731.111 182.182H748.882V163.981H731.111V182.182Z" fill="white"/>
</mask>
<g mask="url(#mask1)">
<path fill-rule="evenodd" clip-rule="evenodd" d="M747.901 163.981H732.092C731.55 163.981 731.111 164.431 731.111 164.986V181.177C731.111 181.732 731.55 182.182 732.092 182.182H740.603V175.134H738.287V172.387H740.603V170.361C740.603 168.01 742.005 166.73 744.053 166.73C745.034 166.73 745.876 166.805 746.122 166.839V169.295L744.702 169.296C743.588 169.296 743.373 169.838 743.373 170.633V172.387H746.029L745.683 175.134H743.373V182.182H747.901C748.443 182.182 748.882 181.732 748.882 181.177V164.986C748.882 164.431 748.443 163.981 747.901 163.981Z" fill="#E3CDB1"/>
</g>
</g>
<path d="M635.774 114.207C635.774 112.983 636.05 111.885 636.602 110.913C637.154 109.929 637.904 109.161 638.852 108.609C639.812 108.057 640.874 107.781 642.038 107.781C643.406 107.781 644.6 108.111 645.62 108.771C646.64 109.431 647.384 110.367 647.852 111.579H645.89C645.542 110.823 645.038 110.241 644.378 109.833C643.73 109.425 642.95 109.221 642.038 109.221C641.162 109.221 640.376 109.425 639.68 109.833C638.984 110.241 638.438 110.823 638.042 111.579C637.646 112.323 637.448 113.199 637.448 114.207C637.448 115.203 637.646 116.079 638.042 116.835C638.438 117.579 638.984 118.155 639.68 118.563C640.376 118.971 641.162 119.175 642.038 119.175C642.95 119.175 643.73 118.977 644.378 118.581C645.038 118.173 645.542 117.591 645.89 116.835H647.852C647.384 118.035 646.64 118.965 645.62 119.625C644.6 120.273 643.406 120.597 642.038 120.597C640.874 120.597 639.812 120.327 638.852 119.787C637.904 119.235 637.154 118.473 636.602 117.501C636.05 116.529 635.774 115.431 635.774 114.207ZM654.592 120.651C653.668 120.651 652.828 120.441 652.072 120.021C651.328 119.601 650.74 119.007 650.308 118.239C649.888 117.459 649.678 116.559 649.678 115.539C649.678 114.531 649.894 113.643 650.326 112.875C650.77 112.095 651.37 111.501 652.126 111.093C652.882 110.673 653.728 110.463 654.664 110.463C655.6 110.463 656.446 110.673 657.202 111.093C657.958 111.501 658.552 112.089 658.984 112.857C659.428 113.625 659.65 114.519 659.65 115.539C659.65 116.559 659.422 117.459 658.966 118.239C658.522 119.007 657.916 119.601 657.148 120.021C656.38 120.441 655.528 120.651 654.592 120.651ZM654.592 119.211C655.18 119.211 655.732 119.073 656.248 118.797C656.764 118.521 657.178 118.107 657.49 117.555C657.814 117.003 657.976 116.331 657.976 115.539C657.976 114.747 657.82 114.075 657.508 113.523C657.196 112.971 656.788 112.563 656.284 112.299C655.78 112.023 655.234 111.885 654.646 111.885C654.046 111.885 653.494 112.023 652.99 112.299C652.498 112.563 652.102 112.971 651.802 113.523C651.502 114.075 651.352 114.747 651.352 115.539C651.352 116.343 651.496 117.021 651.784 117.573C652.084 118.125 652.48 118.539 652.972 118.815C653.464 119.079 654.004 119.211 654.592 119.211ZM673.666 110.445C674.434 110.445 675.118 110.607 675.718 110.931C676.318 111.243 676.792 111.717 677.14 112.353C677.488 112.989 677.662 113.763 677.662 114.675V120.489H676.042V114.909C676.042 113.925 675.796 113.175 675.304 112.659C674.824 112.131 674.17 111.867 673.342 111.867C672.49 111.867 671.812 112.143 671.308 112.695C670.804 113.235 670.552 114.021 670.552 115.053V120.489H668.932V114.909C668.932 113.925 668.686 113.175 668.194 112.659C667.714 112.131 667.06 111.867 666.232 111.867C665.38 111.867 664.702 112.143 664.198 112.695C663.694 113.235 663.442 114.021 663.442 115.053V120.489H661.804V110.625H663.442V112.047C663.766 111.531 664.198 111.135 664.738 110.859C665.29 110.583 665.896 110.445 666.556 110.445C667.384 110.445 668.116 110.631 668.752 111.003C669.388 111.375 669.862 111.921 670.174 112.641C670.45 111.945 670.906 111.405 671.542 111.021C672.178 110.637 672.886 110.445 673.666 110.445ZM689.349 115.179C689.349 115.491 689.331 115.821 689.295 116.169H681.411C681.471 117.141 681.801 117.903 682.401 118.455C683.013 118.995 683.751 119.265 684.615 119.265C685.323 119.265 685.911 119.103 686.379 118.779C686.859 118.443 687.195 117.999 687.387 117.447H689.151C688.887 118.395 688.359 119.169 687.567 119.769C686.775 120.357 685.791 120.651 684.615 120.651C683.679 120.651 682.839 120.441 682.095 120.021C681.363 119.601 680.787 119.007 680.367 118.239C679.947 117.459 679.737 116.559 679.737 115.539C679.737 114.519 679.941 113.625 680.349 112.857C680.757 112.089 681.327 111.501 682.059 111.093C682.803 110.673 683.655 110.463 684.615 110.463C685.551 110.463 686.379 110.667 687.099 111.075C687.819 111.483 688.371 112.047 688.755 112.767C689.151 113.475 689.349 114.279 689.349 115.179ZM687.657 114.837C687.657 114.213 687.519 113.679 687.243 113.235C686.967 112.779 686.589 112.437 686.109 112.209C685.641 111.969 685.119 111.849 684.543 111.849C683.715 111.849 683.007 112.113 682.419 112.641C681.843 113.169 681.513 113.901 681.429 114.837H687.657ZM695.698 115.521C695.698 114.513 695.902 113.631 696.31 112.875C696.718 112.107 697.276 111.513 697.984 111.093C698.704 110.673 699.502 110.463 700.378 110.463C701.242 110.463 701.992 110.649 702.628 111.021C703.264 111.393 703.738 111.861 704.05 112.425V110.625H705.706V120.489H704.05V118.653C703.726 119.229 703.24 119.709 702.592 120.093C701.956 120.465 701.212 120.651 700.36 120.651C699.484 120.651 698.692 120.435 697.984 120.003C697.276 119.571 696.718 118.965 696.31 118.185C695.902 117.405 695.698 116.517 695.698 115.521ZM704.05 115.539C704.05 114.795 703.9 114.147 703.6 113.595C703.3 113.043 702.892 112.623 702.376 112.335C701.872 112.035 701.314 111.885 700.702 111.885C700.09 111.885 699.532 112.029 699.028 112.317C698.524 112.605 698.122 113.025 697.822 113.577C697.522 114.129 697.372 114.777 697.372 115.521C697.372 116.277 697.522 116.937 697.822 117.501C698.122 118.053 698.524 118.479 699.028 118.779C699.532 119.067 700.09 119.211 700.702 119.211C701.314 119.211 701.872 119.067 702.376 118.779C702.892 118.479 703.3 118.053 703.6 117.501C703.9 116.937 704.05 116.283 704.05 115.539ZM713.28 110.445C714.48 110.445 715.452 110.811 716.196 111.543C716.94 112.263 717.312 113.307 717.312 114.675V120.489H715.692V114.909C715.692 113.925 715.446 113.175 714.954 112.659C714.462 112.131 713.79 111.867 712.938 111.867C712.074 111.867 711.384 112.137 710.868 112.677C710.364 113.217 710.112 114.003 710.112 115.035V120.489H708.474V110.625H710.112V112.029C710.436 111.525 710.874 111.135 711.426 110.859C711.99 110.583 712.608 110.445 713.28 110.445ZM719.376 115.521C719.376 114.513 719.58 113.631 719.988 112.875C720.396 112.107 720.954 111.513 721.662 111.093C722.382 110.673 723.186 110.463 724.074 110.463C724.842 110.463 725.556 110.643 726.216 111.003C726.876 111.351 727.38 111.813 727.728 112.389V107.169H729.384V120.489H727.728V118.635C727.404 119.223 726.924 119.709 726.288 120.093C725.652 120.465 724.908 120.651 724.056 120.651C723.18 120.651 722.382 120.435 721.662 120.003C720.954 119.571 720.396 118.965 719.988 118.185C719.58 117.405 719.376 116.517 719.376 115.521ZM727.728 115.539C727.728 114.795 727.578 114.147 727.278 113.595C726.978 113.043 726.57 112.623 726.054 112.335C725.55 112.035 724.992 111.885 724.38 111.885C723.768 111.885 723.21 112.029 722.706 112.317C722.202 112.605 721.8 113.025 721.5 113.577C721.2 114.129 721.05 114.777 721.05 115.521C721.05 116.277 721.2 116.937 721.5 117.501C721.8 118.053 722.202 118.479 722.706 118.779C723.21 119.067 723.768 119.211 724.38 119.211C724.992 119.211 725.55 119.067 726.054 118.779C726.57 118.479 726.978 118.053 727.278 117.501C727.578 116.937 727.728 116.283 727.728 115.539ZM737.832 109.023C737.52 109.023 737.256 108.915 737.04 108.699C736.836 108.483 736.734 108.219 736.734 107.907C736.734 107.595 736.836 107.331 737.04 107.115C737.256 106.899 737.52 106.791 737.832 106.791C738.144 106.791 738.402 106.899 738.606 107.115C738.822 107.331 738.93 107.595 738.93 107.907C738.93 108.219 738.822 108.483 738.606 108.699C738.402 108.915 738.144 109.023 737.832 109.023ZM738.642 122.631C738.642 123.507 738.42 124.149 737.976 124.557C737.532 124.965 736.884 125.169 736.032 125.169H735.078V123.783H735.762C736.218 123.783 736.536 123.693 736.716 123.513C736.908 123.333 737.004 123.027 737.004 122.595V110.625H738.642V122.631ZM745.717 120.651C744.793 120.651 743.953 120.441 743.197 120.021C742.453 119.601 741.865 119.007 741.433 118.239C741.013 117.459 740.803 116.559 740.803 115.539C740.803 114.531 741.019 113.643 741.451 112.875C741.895 112.095 742.495 111.501 743.251 111.093C744.007 110.673 744.853 110.463 745.789 110.463C746.725 110.463 747.571 110.673 748.327 111.093C749.083 111.501 749.677 112.089 750.109 112.857C750.553 113.625 750.775 114.519 750.775 115.539C750.775 116.559 750.547 117.459 750.091 118.239C749.647 119.007 749.041 119.601 748.273 120.021C747.505 120.441 746.653 120.651 745.717 120.651ZM745.717 119.211C746.305 119.211 746.857 119.073 747.373 118.797C747.889 118.521 748.303 118.107 748.615 117.555C748.939 117.003 749.101 116.331 749.101 115.539C749.101 114.747 748.945 114.075 748.633 113.523C748.321 112.971 747.913 112.563 747.409 112.299C746.905 112.023 746.359 111.885 745.771 111.885C745.171 111.885 744.619 112.023 744.115 112.299C743.623 112.563 743.227 112.971 742.927 113.523C742.627 114.075 742.477 114.747 742.477 115.539C742.477 116.343 742.621 117.021 742.909 117.573C743.209 118.125 743.605 118.539 744.097 118.815C744.589 119.079 745.129 119.211 745.717 119.211ZM753.775 109.023C753.463 109.023 753.199 108.915 752.983 108.699C752.767 108.483 752.659 108.219 752.659 107.907C752.659 107.595 752.767 107.331 752.983 107.115C753.199 106.899 753.463 106.791 753.775 106.791C754.075 106.791 754.327 106.899 754.531 107.115C754.747 107.331 754.855 107.595 754.855 107.907C754.855 108.219 754.747 108.483 754.531 108.699C754.327 108.915 754.075 109.023 753.775 109.023ZM754.567 110.625V120.489H752.929V110.625H754.567ZM762.165 110.445C763.365 110.445 764.337 110.811 765.081 111.543C765.825 112.263 766.197 113.307 766.197 114.675V120.489H764.577V114.909C764.577 113.925 764.331 113.175 763.839 112.659C763.347 112.131 762.675 111.867 761.823 111.867C760.959 111.867 760.269 112.137 759.753 112.677C759.249 113.217 758.997 114.003 758.997 115.035V120.489H757.359V110.625H758.997V112.029C759.321 111.525 759.759 111.135 760.311 110.859C760.875 110.583 761.493 110.445 762.165 110.445ZM782.419 110.625V120.489H780.781V119.031C780.469 119.535 780.031 119.931 779.467 120.219C778.915 120.495 778.303 120.633 777.631 120.633C776.863 120.633 776.173 120.477 775.561 120.165C774.949 119.841 774.463 119.361 774.103 118.725C773.755 118.089 773.581 117.315 773.581 116.403V110.625H775.201V116.187C775.201 117.159 775.447 117.909 775.939 118.437C776.431 118.953 777.103 119.211 777.955 119.211C778.831 119.211 779.521 118.941 780.025 118.401C780.529 117.861 780.781 117.075 780.781 116.043V110.625H782.419ZM788.677 120.651C787.921 120.651 787.243 120.525 786.643 120.273C786.043 120.009 785.569 119.649 785.221 119.193C784.873 118.725 784.681 118.191 784.645 117.591H786.337C786.385 118.083 786.613 118.485 787.021 118.797C787.441 119.109 787.987 119.265 788.659 119.265C789.283 119.265 789.775 119.127 790.135 118.851C790.495 118.575 790.675 118.227 790.675 117.807C790.675 117.375 790.483 117.057 790.099 116.853C789.715 116.637 789.121 116.427 788.317 116.223C787.585 116.031 786.985 115.839 786.517 115.647C786.061 115.443 785.665 115.149 785.329 114.765C785.005 114.369 784.843 113.853 784.843 113.217C784.843 112.713 784.993 112.251 785.293 111.831C785.593 111.411 786.019 111.081 786.571 110.841C787.123 110.589 787.753 110.463 788.461 110.463C789.553 110.463 790.435 110.739 791.107 111.291C791.779 111.843 792.139 112.599 792.187 113.559H790.549C790.513 113.043 790.303 112.629 789.919 112.317C789.547 112.005 789.043 111.849 788.407 111.849C787.819 111.849 787.351 111.975 787.003 112.227C786.655 112.479 786.481 112.809 786.481 113.217C786.481 113.541 786.583 113.811 786.787 114.027C787.003 114.231 787.267 114.399 787.579 114.531C787.903 114.651 788.347 114.789 788.911 114.945C789.619 115.137 790.195 115.329 790.639 115.521C791.083 115.701 791.461 115.977 791.773 116.349C792.097 116.721 792.265 117.207 792.277 117.807C792.277 118.347 792.127 118.833 791.827 119.265C791.527 119.697 791.101 120.039 790.549 120.291C790.009 120.531 789.385 120.651 788.677 120.651ZM803.402 111.975H801.332V120.489H799.694V111.975H798.416V110.625H799.694V109.923C799.694 108.819 799.976 108.015 800.54 107.511C801.116 106.995 802.034 106.737 803.294 106.737V108.105C802.574 108.105 802.064 108.249 801.764 108.537C801.476 108.813 801.332 109.275 801.332 109.923V110.625H803.402V111.975ZM809.614 120.651C808.69 120.651 807.85 120.441 807.094 120.021C806.35 119.601 805.762 119.007 805.33 118.239C804.91 117.459 804.7 116.559 804.7 115.539C804.7 114.531 804.916 113.643 805.348 112.875C805.792 112.095 806.392 111.501 807.148 111.093C807.904 110.673 808.75 110.463 809.686 110.463C810.622 110.463 811.468 110.673 812.224 111.093C812.98 111.501 813.574 112.089 814.006 112.857C814.45 113.625 814.672 114.519 814.672 115.539C814.672 116.559 814.444 117.459 813.988 118.239C813.544 119.007 812.938 119.601 812.17 120.021C811.402 120.441 810.55 120.651 809.614 120.651ZM809.614 119.211C810.202 119.211 810.754 119.073 811.27 118.797C811.786 118.521 812.2 118.107 812.512 117.555C812.836 117.003 812.998 116.331 812.998 115.539C812.998 114.747 812.842 114.075 812.53 113.523C812.218 112.971 811.81 112.563 811.306 112.299C810.802 112.023 810.256 111.885 809.668 111.885C809.068 111.885 808.516 112.023 808.012 112.299C807.52 112.563 807.124 112.971 806.824 113.523C806.524 114.075 806.374 114.747 806.374 115.539C806.374 116.343 806.518 117.021 806.806 117.573C807.106 118.125 807.502 118.539 807.994 118.815C808.486 119.079 809.026 119.211 809.614 119.211ZM818.463 112.227C818.751 111.663 819.159 111.225 819.687 110.913C820.227 110.601 820.881 110.445 821.649 110.445V112.137H821.217C819.381 112.137 818.463 113.133 818.463 115.125V120.489H816.825V110.625H818.463V112.227ZM840.201 110.445C840.969 110.445 841.653 110.607 842.253 110.931C842.853 111.243 843.327 111.717 843.675 112.353C844.023 112.989 844.197 113.763 844.197 114.675V120.489H842.577V114.909C842.577 113.925 842.331 113.175 841.839 112.659C841.359 112.131 840.705 111.867 839.877 111.867C839.025 111.867 838.347 112.143 837.843 112.695C837.339 113.235 837.087 114.021 837.087 115.053V120.489H835.467V114.909C835.467 113.925 835.221 113.175 834.729 112.659C834.249 112.131 833.595 111.867 832.767 111.867C831.915 111.867 831.237 112.143 830.733 112.695C830.229 113.235 829.977 114.021 829.977 115.053V120.489H828.339V110.625H829.977V112.047C830.301 111.531 830.733 111.135 831.273 110.859C831.825 110.583 832.431 110.445 833.091 110.445C833.919 110.445 834.651 110.631 835.287 111.003C835.923 111.375 836.397 111.921 836.709 112.641C836.985 111.945 837.441 111.405 838.077 111.021C838.713 110.637 839.421 110.445 840.201 110.445ZM851.186 120.651C850.262 120.651 849.422 120.441 848.666 120.021C847.922 119.601 847.334 119.007 846.902 118.239C846.482 117.459 846.272 116.559 846.272 115.539C846.272 114.531 846.488 113.643 846.92 112.875C847.364 112.095 847.964 111.501 848.72 111.093C849.476 110.673 850.322 110.463 851.258 110.463C852.194 110.463 853.04 110.673 853.796 111.093C854.552 111.501 855.146 112.089 855.578 112.857C856.022 113.625 856.244 114.519 856.244 115.539C856.244 116.559 856.016 117.459 855.56 118.239C855.116 119.007 854.51 119.601 853.742 120.021C852.974 120.441 852.122 120.651 851.186 120.651ZM851.186 119.211C851.774 119.211 852.326 119.073 852.842 118.797C853.358 118.521 853.772 118.107 854.084 117.555C854.408 117.003 854.57 116.331 854.57 115.539C854.57 114.747 854.414 114.075 854.102 113.523C853.79 112.971 853.382 112.563 852.878 112.299C852.374 112.023 851.828 111.885 851.24 111.885C850.64 111.885 850.088 112.023 849.584 112.299C849.092 112.563 848.696 112.971 848.396 113.523C848.096 114.075 847.946 114.747 847.946 115.539C847.946 116.343 848.09 117.021 848.378 117.573C848.678 118.125 849.074 118.539 849.566 118.815C850.058 119.079 850.598 119.211 851.186 119.211ZM860.036 112.227C860.324 111.663 860.732 111.225 861.26 110.913C861.8 110.601 862.454 110.445 863.222 110.445V112.137H862.79C860.954 112.137 860.036 113.133 860.036 115.125V120.489H858.398V110.625H860.036V112.227ZM874.113 115.179C874.113 115.491 874.095 115.821 874.059 116.169H866.175C866.235 117.141 866.565 117.903 867.165 118.455C867.777 118.995 868.515 119.265 869.379 119.265C870.087 119.265 870.675 119.103 871.143 118.779C871.623 118.443 871.959 117.999 872.151 117.447H873.915C873.651 118.395 873.123 119.169 872.331 119.769C871.539 120.357 870.555 120.651 869.379 120.651C868.443 120.651 867.603 120.441 866.859 120.021C866.127 119.601 865.551 119.007 865.131 118.239C864.711 117.459 864.501 116.559 864.501 115.539C864.501 114.519 864.705 113.625 865.113 112.857C865.521 112.089 866.091 111.501 866.823 111.093C867.567 110.673 868.419 110.463 869.379 110.463C870.315 110.463 871.143 110.667 871.863 111.075C872.583 111.483 873.135 112.047 873.519 112.767C873.915 113.475 874.113 114.279 874.113 115.179ZM872.421 114.837C872.421 114.213 872.283 113.679 872.007 113.235C871.731 112.779 871.353 112.437 870.873 112.209C870.405 111.969 869.883 111.849 869.307 111.849C868.479 111.849 867.771 112.113 867.183 112.641C866.607 113.169 866.277 113.901 866.193 114.837H872.421ZM882.712 112.227C883 111.663 883.408 111.225 883.936 110.913C884.476 110.601 885.13 110.445 885.898 110.445V112.137H885.466C883.63 112.137 882.712 113.133 882.712 115.125V120.489H881.074V110.625H882.712V112.227ZM896.788 115.179C896.788 115.491 896.77 115.821 896.734 116.169H888.85C888.91 117.141 889.24 117.903 889.84 118.455C890.452 118.995 891.19 119.265 892.054 119.265C892.762 119.265 893.35 119.103 893.818 118.779C894.298 118.443 894.634 117.999 894.826 117.447H896.59C896.326 118.395 895.798 119.169 895.006 119.769C894.214 120.357 893.23 120.651 892.054 120.651C891.118 120.651 890.278 120.441 889.534 120.021C888.802 119.601 888.226 119.007 887.806 118.239C887.386 117.459 887.176 116.559 887.176 115.539C887.176 114.519 887.38 113.625 887.788 112.857C888.196 112.089 888.766 111.501 889.498 111.093C890.242 110.673 891.094 110.463 892.054 110.463C892.99 110.463 893.818 110.667 894.538 111.075C895.258 111.483 895.81 112.047 896.194 112.767C896.59 113.475 896.788 114.279 896.788 115.179ZM895.096 114.837C895.096 114.213 894.958 113.679 894.682 113.235C894.406 112.779 894.028 112.437 893.548 112.209C893.08 111.969 892.558 111.849 891.982 111.849C891.154 111.849 890.446 112.113 889.858 112.641C889.282 113.169 888.952 113.901 888.868 114.837H895.096ZM898.338 115.539C898.338 114.519 898.542 113.631 898.95 112.875C899.358 112.107 899.922 111.513 900.642 111.093C901.374 110.673 902.208 110.463 903.144 110.463C904.356 110.463 905.352 110.757 906.132 111.345C906.924 111.933 907.446 112.749 907.698 113.793H905.934C905.766 113.193 905.436 112.719 904.944 112.371C904.464 112.023 903.864 111.849 903.144 111.849C902.208 111.849 901.452 112.173 900.876 112.821C900.3 113.457 900.012 114.363 900.012 115.539C900.012 116.727 900.3 117.645 900.876 118.293C901.452 118.941 902.208 119.265 903.144 119.265C903.864 119.265 904.464 119.097 904.944 118.761C905.424 118.425 905.754 117.945 905.934 117.321H907.698C907.434 118.329 906.906 119.139 906.114 119.751C905.322 120.351 904.332 120.651 903.144 120.651C902.208 120.651 901.374 120.441 900.642 120.021C899.922 119.601 899.358 119.007 898.95 118.239C898.542 117.471 898.338 116.571 898.338 115.539ZM910.73 109.023C910.418 109.023 910.154 108.915 909.938 108.699C909.722 108.483 909.614 108.219 909.614 107.907C909.614 107.595 909.722 107.331 909.938 107.115C910.154 106.899 910.418 106.791 910.73 106.791C911.03 106.791 911.282 106.899 911.486 107.115C911.702 107.331 911.81 107.595 911.81 107.907C911.81 108.219 911.702 108.483 911.486 108.699C911.282 108.915 911.03 109.023 910.73 109.023ZM911.522 110.625V120.489H909.884V110.625H911.522ZM915.952 112.443C916.276 111.879 916.756 111.411 917.392 111.039C918.04 110.655 918.79 110.463 919.642 110.463C920.518 110.463 921.31 110.673 922.018 111.093C922.738 111.513 923.302 112.107 923.71 112.875C924.118 113.631 924.322 114.513 924.322 115.521C924.322 116.517 924.118 117.405 923.71 118.185C923.302 118.965 922.738 119.571 922.018 120.003C921.31 120.435 920.518 120.651 919.642 120.651C918.802 120.651 918.058 120.465 917.41 120.093C916.774 119.709 916.288 119.235 915.952 118.671V125.169H914.314V110.625H915.952V112.443ZM922.648 115.521C922.648 114.777 922.498 114.129 922.198 113.577C921.898 113.025 921.49 112.605 920.974 112.317C920.47 112.029 919.912 111.885 919.3 111.885C918.7 111.885 918.142 112.035 917.626 112.335C917.122 112.623 916.714 113.049 916.402 113.613C916.102 114.165 915.952 114.807 915.952 115.539C915.952 116.283 916.102 116.937 916.402 117.501C916.714 118.053 917.122 118.479 917.626 118.779C918.142 119.067 918.7 119.211 919.3 119.211C919.912 119.211 920.47 119.067 920.974 118.779C921.49 118.479 921.898 118.053 922.198 117.501C922.498 116.937 922.648 116.277 922.648 115.521ZM935.478 115.179C935.478 115.491 935.46 115.821 935.424 116.169H927.54C927.6 117.141 927.93 117.903 928.53 118.455C929.142 118.995 929.88 119.265 930.744 119.265C931.452 119.265 932.04 119.103 932.508 118.779C932.988 118.443 933.324 117.999 933.516 117.447H935.28C935.016 118.395 934.488 119.169 933.696 119.769C932.904 120.357 931.92 120.651 930.744 120.651C929.808 120.651 928.968 120.441 928.224 120.021C927.492 119.601 926.916 119.007 926.496 118.239C926.076 117.459 925.866 116.559 925.866 115.539C925.866 114.519 926.07 113.625 926.478 112.857C926.886 112.089 927.456 111.501 928.188 111.093C928.932 110.673 929.784 110.463 930.744 110.463C931.68 110.463 932.508 110.667 933.228 111.075C933.948 111.483 934.5 112.047 934.884 112.767C935.28 113.475 935.478 114.279 935.478 115.179ZM933.786 114.837C933.786 114.213 933.648 113.679 933.372 113.235C933.096 112.779 932.718 112.437 932.238 112.209C931.77 111.969 931.248 111.849 930.672 111.849C929.844 111.849 929.136 112.113 928.548 112.641C927.972 113.169 927.642 113.901 927.558 114.837H933.786ZM941.132 120.651C940.376 120.651 939.698 120.525 939.098 120.273C938.498 120.009 938.024 119.649 937.676 119.193C937.328 118.725 937.136 118.191 937.1 117.591H938.792C938.84 118.083 939.068 118.485 939.476 118.797C939.896 119.109 940.442 119.265 941.114 119.265C941.738 119.265 942.23 119.127 942.59 118.851C942.95 118.575 943.13 118.227 943.13 117.807C943.13 117.375 942.938 117.057 942.554 116.853C942.17 116.637 941.576 116.427 940.772 116.223C940.04 116.031 939.44 115.839 938.972 115.647C938.516 115.443 938.12 115.149 937.784 114.765C937.46 114.369 937.298 113.853 937.298 113.217C937.298 112.713 937.448 112.251 937.748 111.831C938.048 111.411 938.474 111.081 939.026 110.841C939.578 110.589 940.208 110.463 940.916 110.463C942.008 110.463 942.89 110.739 943.562 111.291C944.234 111.843 944.594 112.599 944.642 113.559H943.004C942.968 113.043 942.758 112.629 942.374 112.317C942.002 112.005 941.498 111.849 940.862 111.849C940.274 111.849 939.806 111.975 939.458 112.227C939.11 112.479 938.936 112.809 938.936 113.217C938.936 113.541 939.038 113.811 939.242 114.027C939.458 114.231 939.722 114.399 940.034 114.531C940.358 114.651 940.802 114.789 941.366 114.945C942.074 115.137 942.65 115.329 943.094 115.521C943.538 115.701 943.916 115.977 944.228 116.349C944.552 116.721 944.72 117.207 944.732 117.807C944.732 118.347 944.582 118.833 944.282 119.265C943.982 119.697 943.556 120.039 943.004 120.291C942.464 120.531 941.84 120.651 941.132 120.651Z" fill="black"/>
<path d="M761.42 220.383L756.884 231.625H755.862L757.346 227.985L754.21 220.383H755.288L757.892 226.907L760.412 220.383H761.42ZM762.009 224.191C762.009 223.407 762.163 222.721 762.471 222.133C762.789 221.536 763.223 221.079 763.773 220.761C764.333 220.435 764.963 220.271 765.663 220.271C766.391 220.271 767.017 220.439 767.539 220.775C768.071 221.111 768.454 221.541 768.687 222.063V220.383H769.667V228.027H768.687V226.333C768.445 226.856 768.057 227.29 767.525 227.635C767.003 227.971 766.377 228.139 765.649 228.139C764.959 228.139 764.333 227.976 763.773 227.649C763.223 227.323 762.789 226.861 762.471 226.263C762.163 225.666 762.009 224.975 762.009 224.191ZM768.687 224.205C768.687 223.589 768.561 223.048 768.309 222.581C768.057 222.115 767.712 221.755 767.273 221.503C766.844 221.251 766.368 221.125 765.845 221.125C765.304 221.125 764.819 221.247 764.389 221.489C763.96 221.732 763.619 222.087 763.367 222.553C763.125 223.011 763.003 223.557 763.003 224.191C763.003 224.817 763.125 225.367 763.367 225.843C763.619 226.31 763.96 226.669 764.389 226.921C764.819 227.164 765.304 227.285 765.845 227.285C766.368 227.285 766.844 227.159 767.273 226.907C767.712 226.655 768.057 226.296 768.309 225.829C768.561 225.363 768.687 224.821 768.687 224.205ZM780.713 220.243C781.609 220.243 782.337 220.528 782.897 221.097C783.466 221.657 783.751 222.474 783.751 223.547V228.027H782.785V223.659C782.785 222.829 782.584 222.194 782.183 221.755C781.782 221.317 781.236 221.097 780.545 221.097C779.826 221.097 779.252 221.335 778.823 221.811C778.394 222.287 778.179 222.978 778.179 223.883V228.027H777.213V223.659C777.213 222.829 777.012 222.194 776.611 221.755C776.21 221.317 775.659 221.097 774.959 221.097C774.24 221.097 773.666 221.335 773.237 221.811C772.808 222.287 772.593 222.978 772.593 223.883V228.027H771.613V220.383H772.593V221.699C772.836 221.223 773.181 220.864 773.629 220.621C774.077 220.369 774.576 220.243 775.127 220.243C775.79 220.243 776.368 220.402 776.863 220.719C777.367 221.037 777.731 221.503 777.955 222.119C778.16 221.513 778.51 221.051 779.005 220.733C779.509 220.407 780.078 220.243 780.713 220.243ZM791.936 220.383L787.4 231.625H786.378L787.862 227.985L784.726 220.383H785.804L788.408 226.907L790.928 220.383H791.936ZM792.525 224.191C792.525 223.407 792.679 222.721 792.987 222.133C793.304 221.536 793.738 221.079 794.289 220.761C794.849 220.435 795.479 220.271 796.179 220.271C796.907 220.271 797.532 220.439 798.055 220.775C798.587 221.111 798.97 221.541 799.203 222.063V220.383H800.183V228.027H799.203V226.333C798.96 226.856 798.573 227.29 798.041 227.635C797.518 227.971 796.893 228.139 796.165 228.139C795.474 228.139 794.849 227.976 794.289 227.649C793.738 227.323 793.304 226.861 792.987 226.263C792.679 225.666 792.525 224.975 792.525 224.191ZM799.203 224.205C799.203 223.589 799.077 223.048 798.825 222.581C798.573 222.115 798.228 221.755 797.789 221.503C797.36 221.251 796.884 221.125 796.361 221.125C795.82 221.125 795.334 221.247 794.905 221.489C794.476 221.732 794.135 222.087 793.883 222.553C793.64 223.011 793.519 223.557 793.519 224.191C793.519 224.817 793.64 225.367 793.883 225.843C794.135 226.31 794.476 226.669 794.905 226.921C795.334 227.164 795.82 227.285 796.361 227.285C796.884 227.285 797.36 227.159 797.789 226.907C798.228 226.655 798.573 226.296 798.825 225.829C799.077 225.363 799.203 224.821 799.203 224.205ZM811.228 220.243C812.124 220.243 812.852 220.528 813.412 221.097C813.982 221.657 814.266 222.474 814.266 223.547V228.027H813.3V223.659C813.3 222.829 813.1 222.194 812.698 221.755C812.297 221.317 811.751 221.097 811.06 221.097C810.342 221.097 809.768 221.335 809.338 221.811C808.909 222.287 808.694 222.978 808.694 223.883V228.027H807.728V223.659C807.728 222.829 807.528 222.194 807.126 221.755C806.725 221.317 806.174 221.097 805.474 221.097C804.756 221.097 804.182 221.335 803.752 221.811C803.323 222.287 803.108 222.978 803.108 223.883V228.027H802.128V220.383H803.108V221.699C803.351 221.223 803.696 220.864 804.144 220.621C804.592 220.369 805.092 220.243 805.642 220.243C806.305 220.243 806.884 220.402 807.378 220.719C807.882 221.037 808.246 221.503 808.47 222.119C808.676 221.513 809.026 221.051 809.52 220.733C810.024 220.407 810.594 220.243 811.228 220.243ZM816.319 228.097C816.114 228.097 815.941 228.027 815.801 227.887C815.671 227.747 815.605 227.575 815.605 227.369C815.605 227.164 815.671 226.996 815.801 226.865C815.941 226.725 816.114 226.655 816.319 226.655C816.515 226.655 816.679 226.725 816.809 226.865C816.949 226.996 817.019 227.164 817.019 227.369C817.019 227.575 816.949 227.747 816.809 227.887C816.679 228.027 816.515 228.097 816.319 228.097ZM817.955 224.205C817.955 223.412 818.113 222.721 818.431 222.133C818.748 221.536 819.187 221.079 819.747 220.761C820.307 220.435 820.946 220.271 821.665 220.271C822.607 220.271 823.382 220.505 823.989 220.971C824.605 221.438 825.001 222.073 825.179 222.875H824.129C823.998 222.325 823.713 221.895 823.275 221.587C822.845 221.27 822.309 221.111 821.665 221.111C821.151 221.111 820.689 221.228 820.279 221.461C819.868 221.695 819.541 222.045 819.299 222.511C819.065 222.969 818.949 223.533 818.949 224.205C818.949 224.877 819.065 225.447 819.299 225.913C819.541 226.38 819.868 226.73 820.279 226.963C820.689 227.197 821.151 227.313 821.665 227.313C822.309 227.313 822.845 227.159 823.275 226.851C823.713 226.534 823.998 226.095 824.129 225.535H825.179C825.001 226.319 824.605 226.949 823.989 227.425C823.373 227.901 822.598 228.139 821.665 228.139C820.946 228.139 820.307 227.981 819.747 227.663C819.187 227.337 818.748 226.879 818.431 226.291C818.113 225.694 817.955 224.999 817.955 224.205ZM830.043 228.139C829.324 228.139 828.675 227.981 828.097 227.663C827.527 227.337 827.075 226.879 826.739 226.291C826.412 225.694 826.249 224.999 826.249 224.205C826.249 223.412 826.417 222.721 826.753 222.133C827.089 221.536 827.546 221.079 828.125 220.761C828.703 220.435 829.352 220.271 830.071 220.271C830.789 220.271 831.438 220.435 832.017 220.761C832.605 221.079 833.062 221.536 833.389 222.133C833.725 222.721 833.893 223.412 833.893 224.205C833.893 224.989 833.725 225.68 833.389 226.277C833.053 226.875 832.591 227.337 832.003 227.663C831.415 227.981 830.761 228.139 830.043 228.139ZM830.043 227.285C830.547 227.285 831.013 227.173 831.443 226.949C831.872 226.716 832.217 226.371 832.479 225.913C832.749 225.447 832.885 224.877 832.885 224.205C832.885 223.533 832.754 222.969 832.493 222.511C832.231 222.045 831.886 221.699 831.457 221.475C831.027 221.242 830.561 221.125 830.057 221.125C829.553 221.125 829.086 221.242 828.657 221.475C828.227 221.699 827.882 222.045 827.621 222.511C827.369 222.969 827.243 223.533 827.243 224.205C827.243 224.877 827.369 225.447 827.621 225.913C827.882 226.371 828.223 226.716 828.643 226.949C829.072 227.173 829.539 227.285 830.043 227.285ZM844.488 220.243C845.384 220.243 846.112 220.528 846.672 221.097C847.241 221.657 847.526 222.474 847.526 223.547V228.027H846.56V223.659C846.56 222.829 846.359 222.194 845.958 221.755C845.556 221.317 845.01 221.097 844.32 221.097C843.601 221.097 843.027 221.335 842.598 221.811C842.168 222.287 841.954 222.978 841.954 223.883V228.027H840.988V223.659C840.988 222.829 840.787 222.194 840.386 221.755C839.984 221.317 839.434 221.097 838.734 221.097C838.015 221.097 837.441 221.335 837.012 221.811C836.582 222.287 836.368 222.978 836.368 223.883V228.027H835.388V220.383H836.368V221.699C836.61 221.223 836.956 220.864 837.404 220.621C837.852 220.369 838.351 220.243 838.902 220.243C839.564 220.243 840.143 220.402 840.638 220.719C841.142 221.037 841.506 221.503 841.73 222.119C841.935 221.513 842.285 221.051 842.78 220.733C843.284 220.407 843.853 220.243 844.488 220.243Z" fill="#D0D0D0"/>
<rect x="156" width="1290" height="2.04834" fill="#EEEEEE"/>
<defs>
<clipPath id="clip0">
<rect width="40" height="40.9668" fill="white" transform="translate(840 152.602)"/>
</clipPath>
<clipPath id="clip1">
<rect width="40" height="40.9668" fill="white" transform="translate(780 152.602)"/>
</clipPath>
<clipPath id="clip2">
<rect width="40" height="40.9668" fill="white" transform="translate(720 152.602)"/>
</clipPath>
</defs>
</svg>
