<svg width="269" height="567" viewBox="0 0 269 567" fill="none" xmlns="http://www.w3.org/2000/svg">
<path d="M13.72 15.48C12.8133 15.5333 12.16 15.64 11.76 15.8C11.36 15.96 11.08 16.2667 10.92 16.72C10.7867 17.1733 10.72 17.9067 10.72 18.92V38.76C10.72 39.7733 10.7867 40.5067 10.92 40.96C11.08 41.4133 11.36 41.72 11.76 41.88C12.16 42.04 12.8133 42.1467 13.72 42.2V43C12.28 42.92 10.2667 42.88 7.68 42.88C4.82667 42.88 2.72 42.92 1.36 43V42.2C2.24 42.1467 2.88 42.04 3.28 41.88C3.70667 41.72 3.98667 41.4133 4.12 40.96C4.28 40.5067 4.36 39.7733 4.36 38.76V18.92C4.36 17.9067 4.28 17.1733 4.12 16.72C3.98667 16.2667 3.70667 15.96 3.28 15.8C2.88 15.64 2.24 15.5333 1.36 15.48V14.68C2.72 14.76 4.82667 14.8 7.68 14.8C10.2667 14.8 12.28 14.76 13.72 14.68V15.48ZM30.8791 21.76C32.9057 21.76 34.3724 22.28 35.2791 23.32C35.7324 23.8267 36.0524 24.48 36.2391 25.28C36.4257 26.08 36.5191 27.16 36.5191 28.52V39.28C36.5191 40.3733 36.7057 41.1333 37.0791 41.56C37.4791 41.96 38.1457 42.16 39.0791 42.16V43C36.4124 42.8933 34.6524 42.84 33.7991 42.84C32.9991 42.84 31.2657 42.8933 28.5991 43V42.16C29.3991 42.16 29.9591 41.96 30.2791 41.56C30.5991 41.1333 30.7591 40.3733 30.7591 39.28V26.84C30.7591 25.7467 30.5724 24.92 30.1991 24.36C29.8524 23.8 29.2124 23.52 28.2791 23.52C27.1857 23.52 26.2524 23.9733 25.4791 24.88C24.7057 25.76 24.3191 26.8533 24.3191 28.16V39.28C24.3191 40.3733 24.4791 41.1333 24.7991 41.56C25.1191 41.96 25.6791 42.16 26.4791 42.16V43C24.0257 42.8933 22.3724 42.84 21.5191 42.84C20.7191 42.84 18.8791 42.8933 15.9991 43V42.16C16.9591 42.16 17.6257 41.96 17.9991 41.56C18.3724 41.1333 18.5591 40.3733 18.5591 39.28V26.68C18.5591 25.4533 18.3724 24.56 17.9991 24C17.6257 23.44 16.9591 23.16 15.9991 23.16V22.32C16.8524 22.4 17.6791 22.44 18.4791 22.44C20.8524 22.44 22.7991 22.2533 24.3191 21.88V25.48C25.5191 23 27.7057 21.76 30.8791 21.76ZM59.2559 26.16C58.7226 26.16 58.2693 25.9867 57.8959 25.64C57.5226 25.2667 57.3359 24.7467 57.3359 24.08C57.3359 23.44 57.4959 22.7867 57.8159 22.12C57.1759 22.3867 56.6426 22.6933 56.2159 23.04C55.8159 23.36 55.4693 23.7733 55.1759 24.28C56.0026 25.2667 56.4159 26.5467 56.4159 28.12C56.4159 30.2267 55.6826 31.8133 54.2159 32.88C52.7759 33.9467 50.8559 34.48 48.4559 34.48H47.7359C46.6426 35.12 46.0959 35.8267 46.0959 36.6C46.0959 37.4533 46.6293 37.88 47.6959 37.88H52.0559C54.4026 37.88 56.2693 38.32 57.6559 39.2C59.0693 40.0533 59.7759 41.3733 59.7759 43.16C59.7759 44.52 59.3359 45.7467 58.4559 46.84C57.6026 47.96 56.2959 48.8533 54.5359 49.52C52.7759 50.1867 50.6159 50.52 48.0559 50.52C45.4693 50.52 43.3893 50.1867 41.8159 49.52C40.2693 48.88 39.4959 47.9467 39.4959 46.72C39.4959 45.8933 39.8693 45.1467 40.6159 44.48C41.3626 43.84 42.4693 43.3333 43.9359 42.96L44.2959 43.6C43.3359 44.4 42.8559 45.32 42.8559 46.36C42.8559 47.48 43.3626 48.3333 44.3759 48.92C45.3893 49.5333 46.7893 49.84 48.5759 49.84C50.4426 49.84 51.9493 49.4667 53.0959 48.72C54.2693 47.9733 54.8559 46.92 54.8559 45.56C54.8559 44.68 54.5226 43.9867 53.8559 43.48C53.2159 42.9733 52.0826 42.72 50.4559 42.72H47.9759C46.2693 42.72 44.9359 42.44 43.9759 41.88C43.0159 41.2933 42.5359 40.4133 42.5359 39.24C42.5359 38.2533 42.8826 37.3733 43.5759 36.6C44.2693 35.8267 45.3226 35.08 46.7359 34.36C44.8159 34.12 43.2959 33.48 42.1759 32.44C41.0559 31.4 40.4959 29.96 40.4959 28.12C40.4959 26.0133 41.2159 24.4267 42.6559 23.36C44.1226 22.2933 46.0559 21.76 48.4559 21.76C51.1226 21.76 53.1626 22.3867 54.5759 23.64C55.0826 22.92 55.7093 22.3467 56.4559 21.92C57.2026 21.4933 57.9626 21.28 58.7359 21.28C59.5359 21.28 60.1626 21.52 60.6159 22C61.0959 22.4533 61.3359 23.0533 61.3359 23.8C61.3359 24.5467 61.1226 25.1333 60.6959 25.56C60.2959 25.96 59.8159 26.16 59.2559 26.16ZM48.4559 33.76C49.2026 33.76 49.7626 33.3333 50.1359 32.48C50.5359 31.6267 50.7359 30.1733 50.7359 28.12C50.7359 26.0667 50.5359 24.6133 50.1359 23.76C49.7626 22.9067 49.2026 22.48 48.4559 22.48C47.7093 22.48 47.1359 22.9067 46.7359 23.76C46.3626 24.6133 46.1759 26.0667 46.1759 28.12C46.1759 30.1733 46.3626 31.6267 46.7359 32.48C47.1359 33.3333 47.7093 33.76 48.4559 33.76ZM76.1653 21.76C77.3653 21.76 78.272 22.12 78.8853 22.84C79.4986 23.56 79.8053 24.4267 79.8053 25.44C79.8053 26.4267 79.512 27.24 78.9253 27.88C78.3653 28.4933 77.6186 28.8 76.6853 28.8C75.7786 28.8 75.0586 28.5733 74.5253 28.12C73.992 27.64 73.7253 27.0133 73.7253 26.24C73.7253 24.96 74.312 23.92 75.4853 23.12C75.3786 23.0933 75.2186 23.08 75.0053 23.08C74.7386 23.08 74.5253 23.1067 74.3653 23.16C73.352 23.32 72.4853 23.9333 71.7653 25C71.072 26.0667 70.7253 27.16 70.7253 28.28V38.88C70.7253 40.1067 71.0186 40.96 71.6053 41.44C72.2186 41.92 73.1786 42.16 74.4853 42.16V43C74.112 43 73.8053 42.9867 73.5653 42.96C70.8453 42.88 69.032 42.84 68.1253 42.84C67.4053 42.84 65.7653 42.88 63.2053 42.96C62.992 42.9867 62.7253 43 62.4053 43V42.16C63.3653 42.16 64.032 41.96 64.4053 41.56C64.7786 41.1333 64.9653 40.3733 64.9653 39.28V26.68C64.9653 25.4533 64.7786 24.56 64.4053 24C64.032 23.44 63.3653 23.16 62.4053 23.16V22.32C63.2586 22.4 64.0853 22.44 64.8853 22.44C67.2586 22.44 69.2053 22.2533 70.7253 21.88V25.6C71.232 24.4533 71.9653 23.5333 72.9253 22.84C73.8853 22.12 74.9653 21.76 76.1653 21.76ZM92.2903 40.28C94.477 40.28 96.237 39.2133 97.5703 37.08L98.2903 37.32C97.757 39.0533 96.797 40.5333 95.4103 41.76C94.0503 42.96 92.3436 43.56 90.2903 43.56C87.4636 43.56 85.2103 42.6667 83.5303 40.88C81.877 39.0667 81.0503 36.4 81.0503 32.88C81.0503 29.28 81.9436 26.5333 83.7303 24.64C85.517 22.72 87.8903 21.76 90.8503 21.76C95.8636 21.76 98.3703 24.72 98.3703 30.64H87.1303C87.1036 31.04 87.0903 31.6667 87.0903 32.52C87.0903 34.28 87.3303 35.7467 87.8103 36.92C88.317 38.0933 88.957 38.9467 89.7303 39.48C90.5303 40.0133 91.3836 40.28 92.2903 40.28ZM90.6103 22.6C89.6503 22.6 88.8503 23.2 88.2103 24.4C87.597 25.5733 87.2103 27.4 87.0503 29.88H93.3303C93.3836 27.7733 93.1703 26.04 92.6903 24.68C92.237 23.2933 91.5436 22.6 90.6103 22.6ZM120.367 38.6C120.367 39.8267 120.553 40.72 120.927 41.28C121.3 41.84 121.967 42.12 122.927 42.12V42.96C122.1 42.88 121.273 42.84 120.447 42.84C118.073 42.84 116.127 43.0267 114.607 43.4V39.96C113.7 42.36 111.967 43.56 109.407 43.56C106.9 43.56 104.9 42.6533 103.407 40.84C101.94 39 101.22 36.24 101.247 32.56C101.247 30.2133 101.62 28.24 102.367 26.64C103.14 25.0133 104.193 23.8 105.527 23C106.887 22.1733 108.433 21.76 110.167 21.76C112.113 21.76 113.593 22.2667 114.607 23.28V16.48C114.607 15.2533 114.407 14.36 114.007 13.8C113.633 13.24 112.98 12.96 112.047 12.96V12.12C112.9 12.2 113.727 12.24 114.527 12.24C116.847 12.24 118.793 12.0533 120.367 11.68V38.6ZM111.047 41.84C111.927 41.84 112.7 41.52 113.367 40.88C114.06 40.24 114.473 39.3733 114.607 38.28V24.28C113.94 23.3733 112.967 22.92 111.687 22.92C110.273 22.92 109.18 23.7333 108.407 25.36C107.633 26.9867 107.26 29.4133 107.287 32.64C107.26 35.8933 107.567 38.24 108.207 39.68C108.873 41.12 109.82 41.84 111.047 41.84ZM129.793 12C130.913 12 131.793 12.28 132.433 12.84C133.099 13.3733 133.433 14.12 133.433 15.08C133.433 16.04 133.099 16.8 132.433 17.36C131.793 17.8933 130.913 18.16 129.793 18.16C128.673 18.16 127.779 17.8933 127.113 17.36C126.473 16.8 126.153 16.04 126.153 15.08C126.153 14.12 126.473 13.3733 127.113 12.84C127.779 12.28 128.673 12 129.793 12ZM132.913 39.28C132.913 40.3733 133.099 41.1333 133.473 41.56C133.873 41.96 134.539 42.16 135.473 42.16V43C132.806 42.8933 131.033 42.84 130.153 42.84C129.326 42.84 127.473 42.8933 124.593 43V42.16C125.553 42.16 126.219 41.96 126.593 41.56C126.966 41.1333 127.153 40.3733 127.153 39.28V26.68C127.153 25.4533 126.966 24.56 126.593 24C126.219 23.44 125.553 23.16 124.593 23.16V22.32C125.446 22.4 126.273 22.44 127.073 22.44C129.446 22.44 131.393 22.2533 132.913 21.88V39.28ZM148.97 40.28C151.157 40.28 152.917 39.2133 154.25 37.08L154.97 37.32C154.437 39.0533 153.477 40.5333 152.09 41.76C150.73 42.96 149.023 43.56 146.97 43.56C144.143 43.56 141.89 42.6667 140.21 40.88C138.557 39.0667 137.73 36.4 137.73 32.88C137.73 29.28 138.623 26.5333 140.41 24.64C142.197 22.72 144.57 21.76 147.53 21.76C152.543 21.76 155.05 24.72 155.05 30.64H143.81C143.783 31.04 143.77 31.6667 143.77 32.52C143.77 34.28 144.01 35.7467 144.49 36.92C144.997 38.0933 145.637 38.9467 146.41 39.48C147.21 40.0133 148.063 40.28 148.97 40.28ZM147.29 22.6C146.33 22.6 145.53 23.2 144.89 24.4C144.277 25.5733 143.89 27.4 143.73 29.88H150.01C150.063 27.7733 149.85 26.04 149.37 24.68C148.917 23.2933 148.223 22.6 147.29 22.6ZM172.012 21.76C174.039 21.76 175.505 22.28 176.412 23.32C176.865 23.8267 177.185 24.48 177.372 25.28C177.559 26.08 177.652 27.16 177.652 28.52V39.28C177.652 40.3733 177.839 41.1333 178.212 41.56C178.612 41.96 179.279 42.16 180.212 42.16V43C177.545 42.8933 175.785 42.84 174.932 42.84C174.132 42.84 172.399 42.8933 169.732 43V42.16C170.532 42.16 171.092 41.96 171.412 41.56C171.732 41.1333 171.892 40.3733 171.892 39.28V26.84C171.892 25.7467 171.705 24.92 171.332 24.36C170.985 23.8 170.345 23.52 169.412 23.52C168.319 23.52 167.385 23.9733 166.612 24.88C165.839 25.76 165.452 26.8533 165.452 28.16V39.28C165.452 40.3733 165.612 41.1333 165.932 41.56C166.252 41.96 166.812 42.16 167.612 42.16V43C165.159 42.8933 163.505 42.84 162.652 42.84C161.852 42.84 160.012 42.8933 157.132 43V42.16C158.092 42.16 158.759 41.96 159.132 41.56C159.505 41.1333 159.692 40.3733 159.692 39.28V26.68C159.692 25.4533 159.505 24.56 159.132 24C158.759 23.44 158.092 23.16 157.132 23.16V22.32C157.985 22.4 158.812 22.44 159.612 22.44C161.985 22.44 163.932 22.2533 165.452 21.88V25.48C166.652 23 168.839 21.76 172.012 21.76ZM189.822 22.32H194.542V23.12H189.822V39.28C189.822 40.08 189.956 40.6533 190.222 41C190.516 41.32 190.969 41.48 191.582 41.48C192.729 41.48 193.636 40.68 194.302 39.08L194.982 39.44C193.969 42.1867 192.142 43.56 189.502 43.56C187.742 43.56 186.409 43.1067 185.502 42.2C184.942 41.64 184.556 40.9467 184.342 40.12C184.156 39.2667 184.062 38.1067 184.062 36.64V23.12H180.702V22.32H184.062V17.04C186.276 17.04 188.196 16.6133 189.822 15.76V22.32ZM203.685 21.76C204.698 21.76 205.631 21.8933 206.485 22.16C207.338 22.4 207.991 22.68 208.445 23C208.711 23.1867 208.951 23.28 209.165 23.28C209.405 23.28 209.605 23.16 209.765 22.92C209.951 22.6533 210.071 22.28 210.125 21.8H210.965C210.858 23.16 210.805 25.5067 210.805 28.84H209.965C209.725 27.08 209.191 25.6133 208.365 24.44C207.565 23.24 206.391 22.64 204.845 22.64C204.045 22.64 203.378 22.8667 202.845 23.32C202.338 23.7733 202.085 24.4 202.085 25.2C202.085 26.1067 202.391 26.8933 203.005 27.56C203.618 28.2 204.578 28.9867 205.885 29.92L207.045 30.76C208.671 31.9867 209.871 33.08 210.645 34.04C211.418 35 211.805 36.2 211.805 37.64C211.805 38.8133 211.458 39.8533 210.765 40.76C210.098 41.6667 209.191 42.36 208.045 42.84C206.898 43.32 205.631 43.56 204.245 43.56C202.778 43.56 201.525 43.28 200.485 42.72C199.631 42.2933 199.018 42.0133 198.645 41.88C198.378 41.8 198.138 41.8933 197.925 42.16C197.738 42.4 197.591 42.7733 197.485 43.28H196.645C196.751 41.76 196.805 39.0933 196.805 35.28H197.645C198.178 40.1867 199.978 42.64 203.045 42.64C203.818 42.64 204.471 42.4133 205.005 41.96C205.565 41.48 205.845 40.76 205.845 39.8C205.845 39.0533 205.671 38.3867 205.325 37.8C205.005 37.2133 204.591 36.6933 204.085 36.24C203.578 35.7867 202.818 35.16 201.805 34.36C200.605 33.4 199.685 32.6267 199.045 32.04C198.431 31.4533 197.898 30.76 197.445 29.96C197.018 29.16 196.805 28.2667 196.805 27.28C196.805 25.5733 197.471 24.2267 198.805 23.24C200.138 22.2533 201.765 21.76 203.685 21.76Z" fill="#D0D0D0"/>
<path d="M8.478 95.454V96.786H3.024V101.016H7.452V102.348H3.024V108H1.386V95.454H8.478ZM14.7583 108.162C13.8343 108.162 12.9943 107.952 12.2383 107.532C11.4943 107.112 10.9063 106.518 10.4743 105.75C10.0543 104.97 9.84431 104.07 9.84431 103.05C9.84431 102.042 10.0603 101.154 10.4923 100.386C10.9363 99.606 11.5363 99.012 12.2923 98.604C13.0483 98.184 13.8943 97.974 14.8303 97.974C15.7663 97.974 16.6123 98.184 17.3683 98.604C18.1243 99.012 18.7183 99.6 19.1503 100.368C19.5943 101.136 19.8163 102.03 19.8163 103.05C19.8163 104.07 19.5883 104.97 19.1323 105.75C18.6883 106.518 18.0823 107.112 17.3143 107.532C16.5463 107.952 15.6943 108.162 14.7583 108.162ZM14.7583 106.722C15.3463 106.722 15.8983 106.584 16.4143 106.308C16.9303 106.032 17.3443 105.618 17.6563 105.066C17.9803 104.514 18.1423 103.842 18.1423 103.05C18.1423 102.258 17.9863 101.586 17.6743 101.034C17.3623 100.482 16.9543 100.074 16.4503 99.81C15.9463 99.534 15.4003 99.396 14.8123 99.396C14.2123 99.396 13.6603 99.534 13.1563 99.81C12.6643 100.074 12.2683 100.482 11.9683 101.034C11.6683 101.586 11.5183 102.258 11.5183 103.05C11.5183 103.854 11.6623 104.532 11.9503 105.084C12.2503 105.636 12.6463 106.05 13.1383 106.326C13.6303 106.59 14.1703 106.722 14.7583 106.722ZM23.608 99.738C23.896 99.174 24.304 98.736 24.832 98.424C25.372 98.112 26.026 97.956 26.794 97.956V99.648H26.362C24.526 99.648 23.608 100.644 23.608 102.636V108H21.97V98.136H23.608V99.738ZM35.4817 99.486V105.3C35.4817 105.78 35.5837 106.122 35.7877 106.326C35.9917 106.518 36.3457 106.614 36.8497 106.614H38.0557V108H36.5797C35.6677 108 34.9837 107.79 34.5277 107.37C34.0717 106.95 33.8437 106.26 33.8437 105.3V99.486H32.5657V98.136H33.8437V95.652H35.4817V98.136H38.0557V99.486H35.4817ZM44.9363 97.956C45.6803 97.956 46.3523 98.118 46.9523 98.442C47.5523 98.754 48.0203 99.228 48.3563 99.864C48.7043 100.5 48.8783 101.274 48.8783 102.186V108H47.2583V102.42C47.2583 101.436 47.0123 100.686 46.5203 100.17C46.0283 99.642 45.3563 99.378 44.5043 99.378C43.6403 99.378 42.9503 99.648 42.4343 100.188C41.9303 100.728 41.6783 101.514 41.6783 102.546V108H40.0403V94.68H41.6783V99.54C42.0023 99.036 42.4463 98.646 43.0103 98.37C43.5863 98.094 44.2283 97.956 44.9363 97.956ZM60.554 102.69C60.554 103.002 60.536 103.332 60.5 103.68H52.616C52.676 104.652 53.006 105.414 53.606 105.966C54.218 106.506 54.956 106.776 55.82 106.776C56.528 106.776 57.116 106.614 57.584 106.29C58.064 105.954 58.4 105.51 58.592 104.958H60.356C60.092 105.906 59.564 106.68 58.772 107.28C57.98 107.868 56.996 108.162 55.82 108.162C54.884 108.162 54.044 107.952 53.3 107.532C52.568 107.112 51.992 106.518 51.572 105.75C51.152 104.97 50.942 104.07 50.942 103.05C50.942 102.03 51.146 101.136 51.554 100.368C51.962 99.6 52.532 99.012 53.264 98.604C54.008 98.184 54.86 97.974 55.82 97.974C56.756 97.974 57.584 98.178 58.304 98.586C59.024 98.994 59.576 99.558 59.96 100.278C60.356 100.986 60.554 101.79 60.554 102.69ZM58.862 102.348C58.862 101.724 58.724 101.19 58.448 100.746C58.172 100.29 57.794 99.948 57.314 99.72C56.846 99.48 56.324 99.36 55.748 99.36C54.92 99.36 54.212 99.624 53.624 100.152C53.048 100.68 52.718 101.412 52.634 102.348H58.862ZM66.9029 103.032C66.9029 102.024 67.1069 101.142 67.5149 100.386C67.9229 99.618 68.4809 99.024 69.1889 98.604C69.9089 98.184 70.7129 97.974 71.6009 97.974C72.3689 97.974 73.0829 98.154 73.7429 98.514C74.4029 98.862 74.9069 99.324 75.2549 99.9V94.68H76.9109V108H75.2549V106.146C74.9309 106.734 74.4509 107.22 73.8149 107.604C73.1789 107.976 72.4349 108.162 71.5829 108.162C70.7069 108.162 69.9089 107.946 69.1889 107.514C68.4809 107.082 67.9229 106.476 67.5149 105.696C67.1069 104.916 66.9029 104.028 66.9029 103.032ZM75.2549 103.05C75.2549 102.306 75.1049 101.658 74.8049 101.106C74.5049 100.554 74.0969 100.134 73.5809 99.846C73.0769 99.546 72.5189 99.396 71.9069 99.396C71.2949 99.396 70.7369 99.54 70.2329 99.828C69.7289 100.116 69.3269 100.536 69.0269 101.088C68.7269 101.64 68.5769 102.288 68.5769 103.032C68.5769 103.788 68.7269 104.448 69.0269 105.012C69.3269 105.564 69.7289 105.99 70.2329 106.29C70.7369 106.578 71.2949 106.722 71.9069 106.722C72.5189 106.722 73.0769 106.578 73.5809 106.29C74.0969 105.99 74.5049 105.564 74.8049 105.012C75.1049 104.448 75.2549 103.794 75.2549 103.05ZM83.981 108.162C83.057 108.162 82.217 107.952 81.461 107.532C80.717 107.112 80.129 106.518 79.697 105.75C79.277 104.97 79.067 104.07 79.067 103.05C79.067 102.042 79.283 101.154 79.715 100.386C80.159 99.606 80.759 99.012 81.515 98.604C82.271 98.184 83.117 97.974 84.053 97.974C84.989 97.974 85.835 98.184 86.591 98.604C87.347 99.012 87.941 99.6 88.373 100.368C88.817 101.136 89.039 102.03 89.039 103.05C89.039 104.07 88.811 104.97 88.355 105.75C87.911 106.518 87.305 107.112 86.537 107.532C85.769 107.952 84.917 108.162 83.981 108.162ZM83.981 106.722C84.569 106.722 85.121 106.584 85.637 106.308C86.153 106.032 86.567 105.618 86.879 105.066C87.203 104.514 87.365 103.842 87.365 103.05C87.365 102.258 87.209 101.586 86.897 101.034C86.585 100.482 86.177 100.074 85.673 99.81C85.169 99.534 84.623 99.396 84.035 99.396C83.435 99.396 82.883 99.534 82.379 99.81C81.887 100.074 81.491 100.482 81.191 101.034C80.891 101.586 80.741 102.258 80.741 103.05C80.741 103.854 80.885 104.532 81.173 105.084C81.473 105.636 81.869 106.05 82.361 106.326C82.853 106.59 83.393 106.722 83.981 106.722ZM99.9406 98.136V108H98.3026V106.542C97.9906 107.046 97.5526 107.442 96.9886 107.73C96.4366 108.006 95.8246 108.144 95.1526 108.144C94.3846 108.144 93.6946 107.988 93.0826 107.676C92.4706 107.352 91.9846 106.872 91.6246 106.236C91.2766 105.6 91.1026 104.826 91.1026 103.914V98.136H92.7226V103.698C92.7226 104.67 92.9686 105.42 93.4606 105.948C93.9526 106.464 94.6246 106.722 95.4766 106.722C96.3526 106.722 97.0426 106.452 97.5466 105.912C98.0506 105.372 98.3026 104.586 98.3026 103.554V98.136H99.9406ZM106.774 97.974C107.626 97.974 108.37 98.16 109.006 98.532C109.654 98.904 110.134 99.372 110.446 99.936V98.136H112.102V108.216C112.102 109.116 111.91 109.914 111.526 110.61C111.142 111.318 110.59 111.87 109.87 112.266C109.162 112.662 108.334 112.86 107.386 112.86C106.09 112.86 105.01 112.554 104.146 111.942C103.282 111.33 102.772 110.496 102.616 109.44H104.236C104.416 110.04 104.788 110.52 105.352 110.88C105.916 111.252 106.594 111.438 107.386 111.438C108.286 111.438 109.018 111.156 109.582 110.592C110.158 110.028 110.446 109.236 110.446 108.216V106.146C110.122 106.722 109.642 107.202 109.006 107.586C108.37 107.97 107.626 108.162 106.774 108.162C105.898 108.162 105.1 107.946 104.38 107.514C103.672 107.082 103.114 106.476 102.706 105.696C102.298 104.916 102.094 104.028 102.094 103.032C102.094 102.024 102.298 101.142 102.706 100.386C103.114 99.618 103.672 99.024 104.38 98.604C105.1 98.184 105.898 97.974 106.774 97.974ZM110.446 103.05C110.446 102.306 110.296 101.658 109.996 101.106C109.696 100.554 109.288 100.134 108.772 99.846C108.268 99.546 107.71 99.396 107.098 99.396C106.486 99.396 105.928 99.54 105.424 99.828C104.92 100.116 104.518 100.536 104.218 101.088C103.918 101.64 103.768 102.288 103.768 103.032C103.768 103.788 103.918 104.448 104.218 105.012C104.518 105.564 104.92 105.99 105.424 106.29C105.928 106.578 106.486 106.722 107.098 106.722C107.71 106.722 108.268 106.578 108.772 106.29C109.288 105.99 109.696 105.564 109.996 105.012C110.296 104.448 110.446 103.794 110.446 103.05ZM119.766 97.956C120.51 97.956 121.182 98.118 121.782 98.442C122.382 98.754 122.85 99.228 123.186 99.864C123.534 100.5 123.708 101.274 123.708 102.186V108H122.088V102.42C122.088 101.436 121.842 100.686 121.35 100.17C120.858 99.642 120.186 99.378 119.334 99.378C118.47 99.378 117.78 99.648 117.264 100.188C116.76 100.728 116.508 101.514 116.508 102.546V108H114.87V94.68H116.508V99.54C116.832 99.036 117.276 98.646 117.84 98.37C118.416 98.094 119.058 97.956 119.766 97.956Z" fill="black"/>
<path d="M14.152 150.508C14.152 151.54 14.344 152.26 14.728 152.668C15.112 153.052 15.784 153.244 16.744 153.244V154C14.152 153.904 12.496 153.856 11.776 153.856C10.984 153.856 9.256 153.892 6.592 153.964L5.584 154V153.244C6.712 153.244 7.552 153.028 8.104 152.596C8.68 152.164 8.968 151.396 8.968 150.292V141.508C8.968 140.356 8.86 139.516 8.644 138.988C8.452 138.436 8.116 138.076 7.636 137.908C7.156 137.716 6.424 137.62 5.44 137.62V136.828C7.528 136.78 9.244 136.624 10.588 136.36C11.932 136.072 13.12 135.616 14.152 134.992V150.508Z" fill="#E3CDB1"/>
<path d="M71.078 142.234V148.336C71.078 148.936 71.192 149.35 71.42 149.578C71.648 149.806 72.05 149.92 72.626 149.92H73.778V151H72.428C71.54 151 70.88 150.796 70.448 150.388C70.016 149.968 69.8 149.284 69.8 148.336V142.234H68.432V141.172H69.8V138.706H71.078V141.172H73.778V142.234H71.078ZM77.098 143.35C77.422 142.666 77.92 142.108 78.592 141.676C79.276 141.244 80.08 141.028 81.004 141.028C81.904 141.028 82.708 141.238 83.416 141.658C84.124 142.066 84.676 142.654 85.072 143.422C85.48 144.178 85.684 145.06 85.684 146.068C85.684 147.076 85.48 147.964 85.072 148.732C84.676 149.5 84.118 150.094 83.398 150.514C82.69 150.934 81.892 151.144 81.004 151.144C80.068 151.144 79.258 150.934 78.574 150.514C77.902 150.082 77.41 149.524 77.098 148.84V151H75.856V137.68H77.098V143.35ZM84.406 146.068C84.406 145.252 84.244 144.55 83.92 143.962C83.608 143.362 83.176 142.906 82.624 142.594C82.072 142.282 81.448 142.126 80.752 142.126C80.08 142.126 79.462 142.288 78.898 142.612C78.346 142.936 77.908 143.398 77.584 143.998C77.26 144.598 77.098 145.294 77.098 146.086C77.098 146.878 77.26 147.574 77.584 148.174C77.908 148.774 78.346 149.236 78.898 149.56C79.462 149.884 80.08 150.046 80.752 150.046C81.448 150.046 82.072 149.89 82.624 149.578C83.176 149.254 83.608 148.792 83.92 148.192C84.244 147.58 84.406 146.872 84.406 146.068ZM91.3865 151.144C90.2585 151.144 89.3345 150.886 88.6145 150.37C87.9065 149.842 87.5105 149.128 87.4265 148.228H88.7225C88.7825 148.78 89.0405 149.23 89.4965 149.578C89.9645 149.914 90.5885 150.082 91.3685 150.082C92.0525 150.082 92.5865 149.92 92.9705 149.596C93.3665 149.272 93.5645 148.87 93.5645 148.39C93.5645 148.054 93.4565 147.778 93.2405 147.562C93.0245 147.346 92.7485 147.178 92.4125 147.058C92.0885 146.926 91.6445 146.788 91.0805 146.644C90.3485 146.452 89.7545 146.26 89.2985 146.068C88.8425 145.876 88.4525 145.594 88.1285 145.222C87.8165 144.838 87.6605 144.328 87.6605 143.692C87.6605 143.212 87.8045 142.768 88.0925 142.36C88.3805 141.952 88.7885 141.628 89.3165 141.388C89.8445 141.148 90.4445 141.028 91.1165 141.028C92.1725 141.028 93.0245 141.298 93.6725 141.838C94.3205 142.366 94.6685 143.098 94.7165 144.034H93.4565C93.4205 143.458 93.1925 142.996 92.7725 142.648C92.3645 142.288 91.8005 142.108 91.0805 142.108C90.4445 142.108 89.9285 142.258 89.5325 142.558C89.1365 142.858 88.9385 143.23 88.9385 143.674C88.9385 144.058 89.0525 144.376 89.2805 144.628C89.5205 144.868 89.8145 145.06 90.1625 145.204C90.5105 145.336 90.9785 145.486 91.5665 145.654C92.2745 145.846 92.8385 146.032 93.2585 146.212C93.6785 146.392 94.0385 146.656 94.3385 147.004C94.6385 147.352 94.7945 147.814 94.8065 148.39C94.8065 148.918 94.6625 149.392 94.3745 149.812C94.0865 150.22 93.6845 150.544 93.1685 150.784C92.6525 151.024 92.0585 151.144 91.3865 151.144ZM106.42 151.144C105.496 151.144 104.662 150.94 103.918 150.532C103.186 150.112 102.604 149.524 102.172 148.768C101.752 148 101.542 147.106 101.542 146.086C101.542 145.066 101.758 144.178 102.19 143.422C102.622 142.654 103.21 142.066 103.954 141.658C104.698 141.238 105.532 141.028 106.456 141.028C107.38 141.028 108.214 141.238 108.958 141.658C109.714 142.066 110.302 142.654 110.722 143.422C111.154 144.178 111.37 145.066 111.37 146.086C111.37 147.094 111.154 147.982 110.722 148.75C110.29 149.518 109.696 150.112 108.94 150.532C108.184 150.94 107.344 151.144 106.42 151.144ZM106.42 150.046C107.068 150.046 107.668 149.902 108.22 149.614C108.772 149.314 109.216 148.87 109.552 148.282C109.9 147.682 110.074 146.95 110.074 146.086C110.074 145.222 109.906 144.496 109.57 143.908C109.234 143.308 108.79 142.864 108.238 142.576C107.686 142.276 107.086 142.126 106.438 142.126C105.79 142.126 105.19 142.276 104.638 142.576C104.086 142.864 103.642 143.308 103.306 143.908C102.982 144.496 102.82 145.222 102.82 146.086C102.82 146.95 102.982 147.682 103.306 148.282C103.642 148.87 104.08 149.314 104.62 149.614C105.172 149.902 105.772 150.046 106.42 150.046ZM117.537 142.234H115.251V151H113.991V142.234H112.623V141.172H113.991V140.488C113.991 139.42 114.261 138.634 114.801 138.13C115.353 137.626 116.241 137.374 117.465 137.374V138.454C116.649 138.454 116.073 138.61 115.737 138.922C115.413 139.234 115.251 139.756 115.251 140.488V141.172H117.537V142.234ZM137.42 141.172L134.342 151H133.082L130.364 142.756L127.646 151H126.368L123.29 141.172H124.568L127.016 149.722L129.77 141.172H131.03L133.748 149.74L136.178 141.172H137.42ZM138.561 146.068C138.561 145.06 138.759 144.178 139.155 143.422C139.563 142.654 140.121 142.066 140.829 141.658C141.549 141.238 142.359 141.028 143.259 141.028C144.195 141.028 144.999 141.244 145.671 141.676C146.355 142.108 146.847 142.66 147.147 143.332V141.172H148.407V151H147.147V148.822C146.835 149.494 146.337 150.052 145.653 150.496C144.981 150.928 144.177 151.144 143.241 151.144C142.353 151.144 141.549 150.934 140.829 150.514C140.121 150.094 139.563 149.5 139.155 148.732C138.759 147.964 138.561 147.076 138.561 146.068ZM147.147 146.086C147.147 145.294 146.985 144.598 146.661 143.998C146.337 143.398 145.893 142.936 145.329 142.612C144.777 142.288 144.165 142.126 143.493 142.126C142.797 142.126 142.173 142.282 141.621 142.594C141.069 142.906 140.631 143.362 140.307 143.962C139.995 144.55 139.839 145.252 139.839 146.068C139.839 146.872 139.995 147.58 140.307 148.192C140.631 148.792 141.069 149.254 141.621 149.578C142.173 149.89 142.797 150.046 143.493 150.046C144.165 150.046 144.777 149.884 145.329 149.56C145.893 149.236 146.337 148.774 146.661 148.174C146.985 147.574 147.147 146.878 147.147 146.086ZM152.922 142.234V148.336C152.922 148.936 153.036 149.35 153.264 149.578C153.492 149.806 153.894 149.92 154.47 149.92H155.622V151H154.272C153.384 151 152.724 150.796 152.292 150.388C151.86 149.968 151.644 149.284 151.644 148.336V142.234H150.276V141.172H151.644V138.706H152.922V141.172H155.622V142.234H152.922ZM166.592 145.582C166.592 146.014 166.58 146.344 166.556 146.572H158.402C158.438 147.316 158.618 147.952 158.942 148.48C159.266 149.008 159.692 149.41 160.22 149.686C160.748 149.95 161.324 150.082 161.948 150.082C162.764 150.082 163.448 149.884 164 149.488C164.564 149.092 164.936 148.558 165.116 147.886H166.448C166.208 148.846 165.692 149.632 164.9 150.244C164.12 150.844 163.136 151.144 161.948 151.144C161.024 151.144 160.196 150.94 159.464 150.532C158.732 150.112 158.156 149.524 157.736 148.768C157.328 148 157.124 147.106 157.124 146.086C157.124 145.066 157.328 144.172 157.736 143.404C158.144 142.636 158.714 142.048 159.446 141.64C160.178 141.232 161.012 141.028 161.948 141.028C162.884 141.028 163.7 141.232 164.396 141.64C165.104 142.048 165.644 142.6 166.016 143.296C166.4 143.98 166.592 144.742 166.592 145.582ZM165.314 145.546C165.326 144.814 165.176 144.19 164.864 143.674C164.564 143.158 164.15 142.768 163.622 142.504C163.094 142.24 162.518 142.108 161.894 142.108C160.958 142.108 160.16 142.408 159.5 143.008C158.84 143.608 158.474 144.454 158.402 145.546H165.314ZM170.157 142.918C170.433 142.306 170.853 141.832 171.417 141.496C171.993 141.16 172.695 140.992 173.523 140.992V142.306H173.181C172.269 142.306 171.537 142.552 170.985 143.044C170.433 143.536 170.157 144.358 170.157 145.51V151H168.897V141.172H170.157V142.918Z" fill="#9B9B9B"/>
<path d="M9.9 184.884C11.748 184.884 13.212 185.292 14.292 186.108C15.372 186.9 15.912 188.016 15.912 189.456C15.912 190.44 15.624 191.352 15.048 192.192C14.496 193.032 13.836 193.776 13.068 194.424C12.3 195.072 11.244 195.876 9.9 196.836C8.172 198.036 6.96 198.996 6.264 199.716H14.04C14.688 199.716 15.168 199.668 15.48 199.572C15.816 199.476 16.044 199.32 16.164 199.104C16.284 198.888 16.38 198.552 16.452 198.096H17.208C17.208 200.928 17.256 202.956 17.352 204.18C16.824 204.06 15.036 204 11.988 204H1.512V203.316C1.824 202.98 2.436 202.404 3.348 201.588C4.74 200.316 5.892 199.188 6.804 198.204C7.74 197.196 8.544 196.044 9.216 194.748C9.912 193.428 10.26 192.06 10.26 190.644C10.26 189.372 9.972 188.448 9.396 187.872C8.844 187.272 8.016 186.972 6.912 186.972C5.904 186.972 5.004 187.212 4.212 187.692C3.444 188.148 2.736 188.832 2.088 189.744L1.476 189.384C3.252 186.384 6.06 184.884 9.9 184.884Z" fill="#E3CDB1"/>
<path d="M64.864 196.086C64.864 195.066 65.068 194.178 65.476 193.422C65.884 192.654 66.448 192.066 67.168 191.658C67.888 191.238 68.71 191.028 69.634 191.028C70.846 191.028 71.842 191.328 72.622 191.928C73.414 192.528 73.924 193.344 74.152 194.376H72.802C72.634 193.668 72.268 193.116 71.704 192.72C71.152 192.312 70.462 192.108 69.634 192.108C68.974 192.108 68.38 192.258 67.852 192.558C67.324 192.858 66.904 193.308 66.592 193.908C66.292 194.496 66.142 195.222 66.142 196.086C66.142 196.95 66.292 197.682 66.592 198.282C66.904 198.882 67.324 199.332 67.852 199.632C68.38 199.932 68.974 200.082 69.634 200.082C70.462 200.082 71.152 199.884 71.704 199.488C72.268 199.08 72.634 198.516 72.802 197.796H74.152C73.924 198.804 73.414 199.614 72.622 200.226C71.83 200.838 70.834 201.144 69.634 201.144C68.71 201.144 67.888 200.94 67.168 200.532C66.448 200.112 65.884 199.524 65.476 198.768C65.068 198 64.864 197.106 64.864 196.086ZM84.9931 191.172V201H83.7331V199.272C83.4451 199.884 83.0011 200.352 82.4011 200.676C81.8011 201 81.1291 201.162 80.3851 201.162C79.2091 201.162 78.2491 200.802 77.5051 200.082C76.7611 199.35 76.3891 198.294 76.3891 196.914V191.172H77.6311V196.77C77.6311 197.838 77.8951 198.654 78.4231 199.218C78.9631 199.782 79.6951 200.064 80.6191 200.064C81.5671 200.064 82.3231 199.764 82.8871 199.164C83.4511 198.564 83.7331 197.682 83.7331 196.518V191.172H84.9931ZM89.1117 193.332C89.4237 192.672 89.9157 192.126 90.5877 191.694C91.2717 191.25 92.0817 191.028 93.0177 191.028C93.9057 191.028 94.7037 191.238 95.4117 191.658C96.1317 192.066 96.6897 192.654 97.0857 193.422C97.4937 194.178 97.6977 195.06 97.6977 196.068C97.6977 197.076 97.4937 197.964 97.0857 198.732C96.6897 199.5 96.1317 200.094 95.4117 200.514C94.7037 200.934 93.9057 201.144 93.0177 201.144C92.0937 201.144 91.2897 200.928 90.6057 200.496C89.9217 200.052 89.4237 199.5 89.1117 198.84V205.644H87.8697V191.172H89.1117V193.332ZM96.4197 196.068C96.4197 195.252 96.2577 194.55 95.9337 193.962C95.6217 193.362 95.1897 192.906 94.6377 192.594C94.0857 192.282 93.4617 192.126 92.7657 192.126C92.0937 192.126 91.4757 192.288 90.9117 192.612C90.3597 192.936 89.9217 193.398 89.5977 193.998C89.2737 194.598 89.1117 195.294 89.1117 196.086C89.1117 196.878 89.2737 197.574 89.5977 198.174C89.9217 198.774 90.3597 199.236 90.9117 199.56C91.4757 199.884 92.0937 200.046 92.7657 200.046C93.4617 200.046 94.0857 199.89 94.6377 199.578C95.1897 199.254 95.6217 198.792 95.9337 198.192C96.2577 197.58 96.4197 196.872 96.4197 196.068ZM103.4 201.144C102.272 201.144 101.348 200.886 100.628 200.37C99.9202 199.842 99.5242 199.128 99.4402 198.228H100.736C100.796 198.78 101.054 199.23 101.51 199.578C101.978 199.914 102.602 200.082 103.382 200.082C104.066 200.082 104.6 199.92 104.984 199.596C105.38 199.272 105.578 198.87 105.578 198.39C105.578 198.054 105.47 197.778 105.254 197.562C105.038 197.346 104.762 197.178 104.426 197.058C104.102 196.926 103.658 196.788 103.094 196.644C102.362 196.452 101.768 196.26 101.312 196.068C100.856 195.876 100.466 195.594 100.142 195.222C99.8302 194.838 99.6742 194.328 99.6742 193.692C99.6742 193.212 99.8182 192.768 100.106 192.36C100.394 191.952 100.802 191.628 101.33 191.388C101.858 191.148 102.458 191.028 103.13 191.028C104.186 191.028 105.038 191.298 105.686 191.838C106.334 192.366 106.682 193.098 106.73 194.034H105.47C105.434 193.458 105.206 192.996 104.786 192.648C104.378 192.288 103.814 192.108 103.094 192.108C102.458 192.108 101.942 192.258 101.546 192.558C101.15 192.858 100.952 193.23 100.952 193.674C100.952 194.058 101.066 194.376 101.294 194.628C101.534 194.868 101.828 195.06 102.176 195.204C102.524 195.336 102.992 195.486 103.58 195.654C104.288 195.846 104.852 196.032 105.272 196.212C105.692 196.392 106.052 196.656 106.352 197.004C106.652 197.352 106.808 197.814 106.82 198.39C106.82 198.918 106.676 199.392 106.388 199.812C106.1 200.22 105.698 200.544 105.182 200.784C104.666 201.024 104.072 201.144 103.4 201.144ZM118.433 201.144C117.509 201.144 116.675 200.94 115.931 200.532C115.199 200.112 114.617 199.524 114.185 198.768C113.765 198 113.555 197.106 113.555 196.086C113.555 195.066 113.771 194.178 114.203 193.422C114.635 192.654 115.223 192.066 115.967 191.658C116.711 191.238 117.545 191.028 118.469 191.028C119.393 191.028 120.227 191.238 120.971 191.658C121.727 192.066 122.315 192.654 122.735 193.422C123.167 194.178 123.383 195.066 123.383 196.086C123.383 197.094 123.167 197.982 122.735 198.75C122.303 199.518 121.709 200.112 120.953 200.532C120.197 200.94 119.357 201.144 118.433 201.144ZM118.433 200.046C119.081 200.046 119.681 199.902 120.233 199.614C120.785 199.314 121.229 198.87 121.565 198.282C121.913 197.682 122.087 196.95 122.087 196.086C122.087 195.222 121.919 194.496 121.583 193.908C121.247 193.308 120.803 192.864 120.251 192.576C119.699 192.276 119.099 192.126 118.451 192.126C117.803 192.126 117.203 192.276 116.651 192.576C116.099 192.864 115.655 193.308 115.319 193.908C114.995 194.496 114.833 195.222 114.833 196.086C114.833 196.95 114.995 197.682 115.319 198.282C115.655 198.87 116.093 199.314 116.633 199.614C117.185 199.902 117.785 200.046 118.433 200.046ZM129.55 192.234H127.264V201H126.004V192.234H124.636V191.172H126.004V190.488C126.004 189.42 126.274 188.634 126.814 188.13C127.366 187.626 128.254 187.374 129.478 187.374V188.454C128.662 188.454 128.086 188.61 127.75 188.922C127.426 189.234 127.264 189.756 127.264 190.488V191.172H129.55V192.234ZM140.343 192.234H138.057V201H136.797V192.234H135.429V191.172H136.797V190.488C136.797 189.42 137.067 188.634 137.607 188.13C138.159 187.626 139.047 187.374 140.271 187.374V188.454C139.455 188.454 138.879 188.61 138.543 188.922C138.219 189.234 138.057 189.756 138.057 190.488V191.172H140.343V192.234ZM143.587 187.68V201H142.327V187.68H143.587ZM150.742 201.144C149.818 201.144 148.984 200.94 148.24 200.532C147.508 200.112 146.926 199.524 146.494 198.768C146.074 198 145.864 197.106 145.864 196.086C145.864 195.066 146.08 194.178 146.512 193.422C146.944 192.654 147.532 192.066 148.276 191.658C149.02 191.238 149.854 191.028 150.778 191.028C151.702 191.028 152.536 191.238 153.28 191.658C154.036 192.066 154.624 192.654 155.044 193.422C155.476 194.178 155.692 195.066 155.692 196.086C155.692 197.094 155.476 197.982 155.044 198.75C154.612 199.518 154.018 200.112 153.262 200.532C152.506 200.94 151.666 201.144 150.742 201.144ZM150.742 200.046C151.39 200.046 151.99 199.902 152.542 199.614C153.094 199.314 153.538 198.87 153.874 198.282C154.222 197.682 154.396 196.95 154.396 196.086C154.396 195.222 154.228 194.496 153.892 193.908C153.556 193.308 153.112 192.864 152.56 192.576C152.008 192.276 151.408 192.126 150.76 192.126C150.112 192.126 149.512 192.276 148.96 192.576C148.408 192.864 147.964 193.308 147.628 193.908C147.304 194.496 147.142 195.222 147.142 196.086C147.142 196.95 147.304 197.682 147.628 198.282C147.964 198.87 148.402 199.314 148.942 199.614C149.494 199.902 150.094 200.046 150.742 200.046ZM166.503 191.172V201H165.243V199.272C164.955 199.884 164.511 200.352 163.911 200.676C163.311 201 162.639 201.162 161.895 201.162C160.719 201.162 159.759 200.802 159.015 200.082C158.271 199.35 157.899 198.294 157.899 196.914V191.172H159.141V196.77C159.141 197.838 159.405 198.654 159.933 199.218C160.473 199.782 161.205 200.064 162.129 200.064C163.077 200.064 163.833 199.764 164.397 199.164C164.961 198.564 165.243 197.682 165.243 196.518V191.172H166.503ZM170.639 192.918C170.915 192.306 171.335 191.832 171.899 191.496C172.475 191.16 173.177 190.992 174.005 190.992V192.306H173.663C172.751 192.306 172.019 192.552 171.467 193.044C170.915 193.536 170.639 194.358 170.639 195.51V201H169.379V191.172H170.639V192.918Z" fill="#9B9B9B"/>
<path d="M9.9 234.884C11.748 234.884 13.212 235.292 14.292 236.108C15.372 236.9 15.912 238.016 15.912 239.456C15.912 240.44 15.624 241.352 15.048 242.192C14.496 243.032 13.836 243.776 13.068 244.424C12.3 245.072 11.244 245.876 9.9 246.836C8.172 248.036 6.96 248.996 6.264 249.716H14.04C14.688 249.716 15.168 249.668 15.48 249.572C15.816 249.476 16.044 249.32 16.164 249.104C16.284 248.888 16.38 248.552 16.452 248.096H17.208C17.208 250.928 17.256 252.956 17.352 254.18C16.824 254.06 15.036 254 11.988 254H1.512V253.316C1.824 252.98 2.436 252.404 3.348 251.588C4.74 250.316 5.892 249.188 6.804 248.204C7.74 247.196 8.544 246.044 9.216 244.748C9.912 243.428 10.26 242.06 10.26 240.644C10.26 239.372 9.972 238.448 9.396 237.872C8.844 237.272 8.016 236.972 6.912 236.972C5.904 236.972 5.004 237.212 4.212 237.692C3.444 238.148 2.736 238.832 2.088 239.744L1.476 239.384C3.252 236.384 6.06 234.884 9.9 234.884Z" fill="#E3CDB1"/>
<path d="M74.332 245.582C74.332 246.014 74.32 246.344 74.296 246.572H66.142C66.178 247.316 66.358 247.952 66.682 248.48C67.006 249.008 67.432 249.41 67.96 249.686C68.488 249.95 69.064 250.082 69.688 250.082C70.504 250.082 71.188 249.884 71.74 249.488C72.304 249.092 72.676 248.558 72.856 247.886H74.188C73.948 248.846 73.432 249.632 72.64 250.244C71.86 250.844 70.876 251.144 69.688 251.144C68.764 251.144 67.936 250.94 67.204 250.532C66.472 250.112 65.896 249.524 65.476 248.768C65.068 248 64.864 247.106 64.864 246.086C64.864 245.066 65.068 244.172 65.476 243.404C65.884 242.636 66.454 242.048 67.186 241.64C67.918 241.232 68.752 241.028 69.688 241.028C70.624 241.028 71.44 241.232 72.136 241.64C72.844 242.048 73.384 242.6 73.756 243.296C74.14 243.98 74.332 244.742 74.332 245.582ZM73.054 245.546C73.066 244.814 72.916 244.19 72.604 243.674C72.304 243.158 71.89 242.768 71.362 242.504C70.834 242.24 70.258 242.108 69.634 242.108C68.698 242.108 67.9 242.408 67.24 243.008C66.58 243.608 66.214 244.454 66.142 245.546H73.054ZM80.7593 241.028C81.6833 241.028 82.4873 241.244 83.1713 241.676C83.8553 242.108 84.3473 242.654 84.6473 243.314V241.172H85.9073V251.252C85.9073 252.152 85.7093 252.95 85.3133 253.646C84.9293 254.342 84.3893 254.876 83.6933 255.248C82.9973 255.632 82.2053 255.824 81.3173 255.824C80.0573 255.824 79.0073 255.524 78.1673 254.924C77.3393 254.324 76.8233 253.508 76.6193 252.476H77.8613C78.0773 253.16 78.4853 253.706 79.0853 254.114C79.6973 254.522 80.4413 254.726 81.3173 254.726C81.9533 254.726 82.5233 254.588 83.0273 254.312C83.5313 254.048 83.9273 253.652 84.2153 253.124C84.5033 252.596 84.6473 251.972 84.6473 251.252V248.822C84.3353 249.494 83.8373 250.052 83.1533 250.496C82.4813 250.928 81.6833 251.144 80.7593 251.144C79.8593 251.144 79.0493 250.934 78.3293 250.514C77.6213 250.094 77.0633 249.5 76.6553 248.732C76.2593 247.964 76.0613 247.076 76.0613 246.068C76.0613 245.06 76.2593 244.178 76.6553 243.422C77.0633 242.654 77.6213 242.066 78.3293 241.658C79.0493 241.238 79.8593 241.028 80.7593 241.028ZM84.6473 246.086C84.6473 245.294 84.4853 244.598 84.1613 243.998C83.8373 243.398 83.3933 242.936 82.8293 242.612C82.2773 242.288 81.6653 242.126 80.9933 242.126C80.2973 242.126 79.6733 242.282 79.1213 242.594C78.5693 242.906 78.1313 243.362 77.8073 243.962C77.4953 244.55 77.3393 245.252 77.3393 246.068C77.3393 246.872 77.4953 247.58 77.8073 248.192C78.1313 248.792 78.5693 249.254 79.1213 249.578C79.6733 249.89 80.2973 250.046 80.9933 250.046C81.6653 250.046 82.2773 249.884 82.8293 249.56C83.3933 249.236 83.8373 248.774 84.1613 248.174C84.4853 247.574 84.6473 246.878 84.6473 246.086ZM92.9058 241.028C93.8298 241.028 94.6338 241.244 95.3178 241.676C96.0018 242.108 96.4938 242.654 96.7938 243.314V241.172H98.0538V251.252C98.0538 252.152 97.8558 252.95 97.4598 253.646C97.0758 254.342 96.5358 254.876 95.8398 255.248C95.1438 255.632 94.3518 255.824 93.4638 255.824C92.2038 255.824 91.1538 255.524 90.3138 254.924C89.4858 254.324 88.9698 253.508 88.7658 252.476H90.0078C90.2238 253.16 90.6318 253.706 91.2318 254.114C91.8438 254.522 92.5878 254.726 93.4638 254.726C94.0998 254.726 94.6698 254.588 95.1738 254.312C95.6778 254.048 96.0738 253.652 96.3618 253.124C96.6498 252.596 96.7938 251.972 96.7938 251.252V248.822C96.4818 249.494 95.9838 250.052 95.2998 250.496C94.6278 250.928 93.8298 251.144 92.9058 251.144C92.0058 251.144 91.1958 250.934 90.4758 250.514C89.7678 250.094 89.2098 249.5 88.8018 248.732C88.4058 247.964 88.2078 247.076 88.2078 246.068C88.2078 245.06 88.4058 244.178 88.8018 243.422C89.2098 242.654 89.7678 242.066 90.4758 241.658C91.1958 241.238 92.0058 241.028 92.9058 241.028ZM96.7938 246.086C96.7938 245.294 96.6318 244.598 96.3078 243.998C95.9838 243.398 95.5398 242.936 94.9758 242.612C94.4238 242.288 93.8118 242.126 93.1398 242.126C92.4438 242.126 91.8198 242.282 91.2678 242.594C90.7158 242.906 90.2778 243.362 89.9538 243.962C89.6418 244.55 89.4858 245.252 89.4858 246.068C89.4858 246.872 89.6418 247.58 89.9538 248.192C90.2778 248.792 90.7158 249.254 91.2678 249.578C91.8198 249.89 92.4438 250.046 93.1398 250.046C93.8118 250.046 94.4238 249.884 94.9758 249.56C95.5398 249.236 95.9838 248.774 96.3078 248.174C96.6318 247.574 96.7938 246.878 96.7938 246.086ZM104.314 251.144C103.186 251.144 102.262 250.886 101.542 250.37C100.834 249.842 100.438 249.128 100.354 248.228H101.65C101.71 248.78 101.968 249.23 102.424 249.578C102.892 249.914 103.516 250.082 104.296 250.082C104.98 250.082 105.514 249.92 105.898 249.596C106.294 249.272 106.492 248.87 106.492 248.39C106.492 248.054 106.384 247.778 106.168 247.562C105.952 247.346 105.676 247.178 105.34 247.058C105.016 246.926 104.572 246.788 104.008 246.644C103.276 246.452 102.682 246.26 102.226 246.068C101.77 245.876 101.38 245.594 101.056 245.222C100.744 244.838 100.588 244.328 100.588 243.692C100.588 243.212 100.732 242.768 101.02 242.36C101.308 241.952 101.716 241.628 102.244 241.388C102.772 241.148 103.372 241.028 104.044 241.028C105.1 241.028 105.952 241.298 106.6 241.838C107.248 242.366 107.596 243.098 107.644 244.034H106.384C106.348 243.458 106.12 242.996 105.7 242.648C105.292 242.288 104.728 242.108 104.008 242.108C103.372 242.108 102.856 242.258 102.46 242.558C102.064 242.858 101.866 243.23 101.866 243.674C101.866 244.058 101.98 244.376 102.208 244.628C102.448 244.868 102.742 245.06 103.09 245.204C103.438 245.336 103.906 245.486 104.494 245.654C105.202 245.846 105.766 246.032 106.186 246.212C106.606 246.392 106.966 246.656 107.266 247.004C107.566 247.352 107.722 247.814 107.734 248.39C107.734 248.918 107.59 249.392 107.302 249.812C107.014 250.22 106.612 250.544 106.096 250.784C105.58 251.024 104.986 251.144 104.314 251.144Z" fill="#9B9B9B"/>
<path d="M10.152 300.508C10.152 301.54 10.344 302.26 10.728 302.668C11.112 303.052 11.784 303.244 12.744 303.244V304C10.152 303.904 8.496 303.856 7.776 303.856C6.984 303.856 5.256 303.892 2.592 303.964L1.584 304V303.244C2.712 303.244 3.552 303.028 4.104 302.596C4.68 302.164 4.968 301.396 4.968 300.292V291.508C4.968 290.356 4.86 289.516 4.644 288.988C4.452 288.436 4.116 288.076 3.636 287.908C3.156 287.716 2.424 287.62 1.44 287.62V286.828C3.528 286.78 5.244 286.624 6.588 286.36C7.932 286.072 9.12 285.616 10.152 284.992V300.508Z" fill="#E3CDB1"/>
<path d="M64.864 296.086C64.864 295.066 65.068 294.178 65.476 293.422C65.884 292.654 66.448 292.066 67.168 291.658C67.888 291.238 68.71 291.028 69.634 291.028C70.846 291.028 71.842 291.328 72.622 291.928C73.414 292.528 73.924 293.344 74.152 294.376H72.802C72.634 293.668 72.268 293.116 71.704 292.72C71.152 292.312 70.462 292.108 69.634 292.108C68.974 292.108 68.38 292.258 67.852 292.558C67.324 292.858 66.904 293.308 66.592 293.908C66.292 294.496 66.142 295.222 66.142 296.086C66.142 296.95 66.292 297.682 66.592 298.282C66.904 298.882 67.324 299.332 67.852 299.632C68.38 299.932 68.974 300.082 69.634 300.082C70.462 300.082 71.152 299.884 71.704 299.488C72.268 299.08 72.634 298.516 72.802 297.796H74.152C73.924 298.804 73.414 299.614 72.622 300.226C71.83 300.838 70.834 301.144 69.634 301.144C68.71 301.144 67.888 300.94 67.168 300.532C66.448 300.112 65.884 299.524 65.476 298.768C65.068 298 64.864 297.106 64.864 296.086ZM84.9931 291.172V301H83.7331V299.272C83.4451 299.884 83.0011 300.352 82.4011 300.676C81.8011 301 81.1291 301.162 80.3851 301.162C79.2091 301.162 78.2491 300.802 77.5051 300.082C76.7611 299.35 76.3891 298.294 76.3891 296.914V291.172H77.6311V296.77C77.6311 297.838 77.8951 298.654 78.4231 299.218C78.9631 299.782 79.6951 300.064 80.6191 300.064C81.5671 300.064 82.3231 299.764 82.8871 299.164C83.4511 298.564 83.7331 297.682 83.7331 296.518V291.172H84.9931ZM89.1117 293.332C89.4237 292.672 89.9157 292.126 90.5877 291.694C91.2717 291.25 92.0817 291.028 93.0177 291.028C93.9057 291.028 94.7037 291.238 95.4117 291.658C96.1317 292.066 96.6897 292.654 97.0857 293.422C97.4937 294.178 97.6977 295.06 97.6977 296.068C97.6977 297.076 97.4937 297.964 97.0857 298.732C96.6897 299.5 96.1317 300.094 95.4117 300.514C94.7037 300.934 93.9057 301.144 93.0177 301.144C92.0937 301.144 91.2897 300.928 90.6057 300.496C89.9217 300.052 89.4237 299.5 89.1117 298.84V305.644H87.8697V291.172H89.1117V293.332ZM96.4197 296.068C96.4197 295.252 96.2577 294.55 95.9337 293.962C95.6217 293.362 95.1897 292.906 94.6377 292.594C94.0857 292.282 93.4617 292.126 92.7657 292.126C92.0937 292.126 91.4757 292.288 90.9117 292.612C90.3597 292.936 89.9217 293.398 89.5977 293.998C89.2737 294.598 89.1117 295.294 89.1117 296.086C89.1117 296.878 89.2737 297.574 89.5977 298.174C89.9217 298.774 90.3597 299.236 90.9117 299.56C91.4757 299.884 92.0937 300.046 92.7657 300.046C93.4617 300.046 94.0857 299.89 94.6377 299.578C95.1897 299.254 95.6217 298.792 95.9337 298.192C96.2577 297.58 96.4197 296.872 96.4197 296.068ZM109.258 301.144C108.334 301.144 107.5 300.94 106.756 300.532C106.024 300.112 105.442 299.524 105.01 298.768C104.59 298 104.38 297.106 104.38 296.086C104.38 295.066 104.596 294.178 105.028 293.422C105.46 292.654 106.048 292.066 106.792 291.658C107.536 291.238 108.37 291.028 109.294 291.028C110.218 291.028 111.052 291.238 111.796 291.658C112.552 292.066 113.14 292.654 113.56 293.422C113.992 294.178 114.208 295.066 114.208 296.086C114.208 297.094 113.992 297.982 113.56 298.75C113.128 299.518 112.534 300.112 111.778 300.532C111.022 300.94 110.182 301.144 109.258 301.144ZM109.258 300.046C109.906 300.046 110.506 299.902 111.058 299.614C111.61 299.314 112.054 298.87 112.39 298.282C112.738 297.682 112.912 296.95 112.912 296.086C112.912 295.222 112.744 294.496 112.408 293.908C112.072 293.308 111.628 292.864 111.076 292.576C110.524 292.276 109.924 292.126 109.276 292.126C108.628 292.126 108.028 292.276 107.476 292.576C106.924 292.864 106.48 293.308 106.144 293.908C105.82 294.496 105.658 295.222 105.658 296.086C105.658 296.95 105.82 297.682 106.144 298.282C106.48 298.87 106.918 299.314 107.458 299.614C108.01 299.902 108.61 300.046 109.258 300.046ZM120.374 292.234H118.088V301H116.828V292.234H115.46V291.172H116.828V290.488C116.828 289.42 117.098 288.634 117.638 288.13C118.19 287.626 119.078 287.374 120.302 287.374V288.454C119.486 288.454 118.91 288.61 118.574 288.922C118.25 289.234 118.088 289.756 118.088 290.488V291.172H120.374V292.234ZM130.681 301.144C129.553 301.144 128.629 300.886 127.909 300.37C127.201 299.842 126.805 299.128 126.721 298.228H128.017C128.077 298.78 128.335 299.23 128.791 299.578C129.259 299.914 129.883 300.082 130.663 300.082C131.347 300.082 131.881 299.92 132.265 299.596C132.661 299.272 132.859 298.87 132.859 298.39C132.859 298.054 132.751 297.778 132.535 297.562C132.319 297.346 132.043 297.178 131.707 297.058C131.383 296.926 130.939 296.788 130.375 296.644C129.643 296.452 129.049 296.26 128.593 296.068C128.137 295.876 127.747 295.594 127.423 295.222C127.111 294.838 126.955 294.328 126.955 293.692C126.955 293.212 127.099 292.768 127.387 292.36C127.675 291.952 128.083 291.628 128.611 291.388C129.139 291.148 129.739 291.028 130.411 291.028C131.467 291.028 132.319 291.298 132.967 291.838C133.615 292.366 133.963 293.098 134.011 294.034H132.751C132.715 293.458 132.487 292.996 132.067 292.648C131.659 292.288 131.095 292.108 130.375 292.108C129.739 292.108 129.223 292.258 128.827 292.558C128.431 292.858 128.233 293.23 128.233 293.674C128.233 294.058 128.347 294.376 128.575 294.628C128.815 294.868 129.109 295.06 129.457 295.204C129.805 295.336 130.273 295.486 130.861 295.654C131.569 295.846 132.133 296.032 132.553 296.212C132.973 296.392 133.333 296.656 133.633 297.004C133.933 297.352 134.089 297.814 134.101 298.39C134.101 298.918 133.957 299.392 133.669 299.812C133.381 300.22 132.979 300.544 132.463 300.784C131.947 301.024 131.353 301.144 130.681 301.144ZM144.987 291.172V301H143.727V299.272C143.439 299.884 142.995 300.352 142.395 300.676C141.795 301 141.123 301.162 140.379 301.162C139.203 301.162 138.243 300.802 137.499 300.082C136.755 299.35 136.383 298.294 136.383 296.914V291.172H137.625V296.77C137.625 297.838 137.889 298.654 138.417 299.218C138.957 299.782 139.689 300.064 140.613 300.064C141.561 300.064 142.317 299.764 142.881 299.164C143.445 298.564 143.727 297.682 143.727 296.518V291.172H144.987ZM151.986 291.028C152.91 291.028 153.714 291.244 154.398 291.676C155.082 292.108 155.574 292.654 155.874 293.314V291.172H157.134V301.252C157.134 302.152 156.936 302.95 156.54 303.646C156.156 304.342 155.616 304.876 154.92 305.248C154.224 305.632 153.432 305.824 152.544 305.824C151.284 305.824 150.234 305.524 149.394 304.924C148.566 304.324 148.05 303.508 147.846 302.476H149.088C149.304 303.16 149.712 303.706 150.312 304.114C150.924 304.522 151.668 304.726 152.544 304.726C153.18 304.726 153.75 304.588 154.254 304.312C154.758 304.048 155.154 303.652 155.442 303.124C155.73 302.596 155.874 301.972 155.874 301.252V298.822C155.562 299.494 155.064 300.052 154.38 300.496C153.708 300.928 152.91 301.144 151.986 301.144C151.086 301.144 150.276 300.934 149.556 300.514C148.848 300.094 148.29 299.5 147.882 298.732C147.486 297.964 147.288 297.076 147.288 296.068C147.288 295.06 147.486 294.178 147.882 293.422C148.29 292.654 148.848 292.066 149.556 291.658C150.276 291.238 151.086 291.028 151.986 291.028ZM155.874 296.086C155.874 295.294 155.712 294.598 155.388 293.998C155.064 293.398 154.62 292.936 154.056 292.612C153.504 292.288 152.892 292.126 152.22 292.126C151.524 292.126 150.9 292.282 150.348 292.594C149.796 292.906 149.358 293.362 149.034 293.962C148.722 294.55 148.566 295.252 148.566 296.068C148.566 296.872 148.722 297.58 149.034 298.192C149.358 298.792 149.796 299.254 150.348 299.578C150.9 299.89 151.524 300.046 152.22 300.046C152.892 300.046 153.504 299.884 154.056 299.56C154.62 299.236 155.064 298.774 155.388 298.174C155.712 297.574 155.874 296.878 155.874 296.086ZM159.434 296.068C159.434 295.06 159.632 294.178 160.028 293.422C160.436 292.654 160.994 292.066 161.702 291.658C162.422 291.238 163.232 291.028 164.132 291.028C165.068 291.028 165.872 291.244 166.544 291.676C167.228 292.108 167.72 292.66 168.02 293.332V291.172H169.28V301H168.02V298.822C167.708 299.494 167.21 300.052 166.526 300.496C165.854 300.928 165.05 301.144 164.114 301.144C163.226 301.144 162.422 300.934 161.702 300.514C160.994 300.094 160.436 299.5 160.028 298.732C159.632 297.964 159.434 297.076 159.434 296.068ZM168.02 296.086C168.02 295.294 167.858 294.598 167.534 293.998C167.21 293.398 166.766 292.936 166.202 292.612C165.65 292.288 165.038 292.126 164.366 292.126C163.67 292.126 163.046 292.282 162.494 292.594C161.942 292.906 161.504 293.362 161.18 293.962C160.868 294.55 160.712 295.252 160.712 296.068C160.712 296.872 160.868 297.58 161.18 298.192C161.504 298.792 161.942 299.254 162.494 299.578C163.046 299.89 163.67 300.046 164.366 300.046C165.038 300.046 165.65 299.884 166.202 299.56C166.766 299.236 167.21 298.774 167.534 298.174C167.858 297.574 168.02 296.878 168.02 296.086ZM173.417 292.918C173.693 292.306 174.113 291.832 174.677 291.496C175.253 291.16 175.955 290.992 176.783 290.992V292.306H176.441C175.529 292.306 174.797 292.552 174.245 293.044C173.693 293.536 173.417 294.358 173.417 295.51V301H172.157V291.172H173.417V292.918Z" fill="#9B9B9B"/>
<path d="M8.478 352.454V353.786H3.024V358.016H7.452V359.348H3.024V365H1.386V352.454H8.478ZM14.7583 365.162C13.8343 365.162 12.9943 364.952 12.2383 364.532C11.4943 364.112 10.9063 363.518 10.4743 362.75C10.0543 361.97 9.84431 361.07 9.84431 360.05C9.84431 359.042 10.0603 358.154 10.4923 357.386C10.9363 356.606 11.5363 356.012 12.2923 355.604C13.0483 355.184 13.8943 354.974 14.8303 354.974C15.7663 354.974 16.6123 355.184 17.3683 355.604C18.1243 356.012 18.7183 356.6 19.1503 357.368C19.5943 358.136 19.8163 359.03 19.8163 360.05C19.8163 361.07 19.5883 361.97 19.1323 362.75C18.6883 363.518 18.0823 364.112 17.3143 364.532C16.5463 364.952 15.6943 365.162 14.7583 365.162ZM14.7583 363.722C15.3463 363.722 15.8983 363.584 16.4143 363.308C16.9303 363.032 17.3443 362.618 17.6563 362.066C17.9803 361.514 18.1423 360.842 18.1423 360.05C18.1423 359.258 17.9863 358.586 17.6743 358.034C17.3623 357.482 16.9543 357.074 16.4503 356.81C15.9463 356.534 15.4003 356.396 14.8123 356.396C14.2123 356.396 13.6603 356.534 13.1563 356.81C12.6643 357.074 12.2683 357.482 11.9683 358.034C11.6683 358.586 11.5183 359.258 11.5183 360.05C11.5183 360.854 11.6623 361.532 11.9503 362.084C12.2503 362.636 12.6463 363.05 13.1383 363.326C13.6303 363.59 14.1703 363.722 14.7583 363.722ZM23.608 356.738C23.896 356.174 24.304 355.736 24.832 355.424C25.372 355.112 26.026 354.956 26.794 354.956V356.648H26.362C24.526 356.648 23.608 357.644 23.608 359.636V365H21.97V355.136H23.608V356.738ZM35.4817 356.486V362.3C35.4817 362.78 35.5837 363.122 35.7877 363.326C35.9917 363.518 36.3457 363.614 36.8497 363.614H38.0557V365H36.5797C35.6677 365 34.9837 364.79 34.5277 364.37C34.0717 363.95 33.8437 363.26 33.8437 362.3V356.486H32.5657V355.136H33.8437V352.652H35.4817V355.136H38.0557V356.486H35.4817ZM44.9363 354.956C45.6803 354.956 46.3523 355.118 46.9523 355.442C47.5523 355.754 48.0203 356.228 48.3563 356.864C48.7043 357.5 48.8783 358.274 48.8783 359.186V365H47.2583V359.42C47.2583 358.436 47.0123 357.686 46.5203 357.17C46.0283 356.642 45.3563 356.378 44.5043 356.378C43.6403 356.378 42.9503 356.648 42.4343 357.188C41.9303 357.728 41.6783 358.514 41.6783 359.546V365H40.0403V351.68H41.6783V356.54C42.0023 356.036 42.4463 355.646 43.0103 355.37C43.5863 355.094 44.2283 354.956 44.9363 354.956ZM60.554 359.69C60.554 360.002 60.536 360.332 60.5 360.68H52.616C52.676 361.652 53.006 362.414 53.606 362.966C54.218 363.506 54.956 363.776 55.82 363.776C56.528 363.776 57.116 363.614 57.584 363.29C58.064 362.954 58.4 362.51 58.592 361.958H60.356C60.092 362.906 59.564 363.68 58.772 364.28C57.98 364.868 56.996 365.162 55.82 365.162C54.884 365.162 54.044 364.952 53.3 364.532C52.568 364.112 51.992 363.518 51.572 362.75C51.152 361.97 50.942 361.07 50.942 360.05C50.942 359.03 51.146 358.136 51.554 357.368C51.962 356.6 52.532 356.012 53.264 355.604C54.008 355.184 54.86 354.974 55.82 354.974C56.756 354.974 57.584 355.178 58.304 355.586C59.024 355.994 59.576 356.558 59.96 357.278C60.356 357.986 60.554 358.79 60.554 359.69ZM58.862 359.348C58.862 358.724 58.724 358.19 58.448 357.746C58.172 357.29 57.794 356.948 57.314 356.72C56.846 356.48 56.324 356.36 55.748 356.36C54.92 356.36 54.212 356.624 53.624 357.152C53.048 357.68 52.718 358.412 52.634 359.348H58.862ZM71.5289 356.486H69.4589V365H67.8209V356.486H66.5429V355.136H67.8209V354.434C67.8209 353.33 68.1029 352.526 68.6669 352.022C69.2429 351.506 70.1609 351.248 71.4209 351.248V352.616C70.7009 352.616 70.1909 352.76 69.8909 353.048C69.6029 353.324 69.4589 353.786 69.4589 354.434V355.136H71.5289V356.486ZM74.2847 353.534C73.9727 353.534 73.7087 353.426 73.4927 353.21C73.2767 352.994 73.1687 352.73 73.1687 352.418C73.1687 352.106 73.2767 351.842 73.4927 351.626C73.7087 351.41 73.9727 351.302 74.2847 351.302C74.5847 351.302 74.8367 351.41 75.0407 351.626C75.2567 351.842 75.3647 352.106 75.3647 352.418C75.3647 352.73 75.2567 352.994 75.0407 353.21C74.8367 353.426 74.5847 353.534 74.2847 353.534ZM75.0767 355.136V365H73.4387V355.136H75.0767ZM79.5064 351.68V365H77.8684V351.68H79.5064ZM83.9361 351.68V365H82.2981V351.68H83.9361ZM87.5738 353.534C87.2618 353.534 86.9978 353.426 86.7818 353.21C86.5658 352.994 86.4578 352.73 86.4578 352.418C86.4578 352.106 86.5658 351.842 86.7818 351.626C86.9978 351.41 87.2618 351.302 87.5738 351.302C87.8738 351.302 88.1258 351.41 88.3298 351.626C88.5458 351.842 88.6538 352.106 88.6538 352.418C88.6538 352.73 88.5458 352.994 88.3298 353.21C88.1258 353.426 87.8738 353.534 87.5738 353.534ZM88.3658 355.136V365H86.7278V355.136H88.3658ZM95.9635 354.956C97.1635 354.956 98.1355 355.322 98.8795 356.054C99.6235 356.774 99.9955 357.818 99.9955 359.186V365H98.3755V359.42C98.3755 358.436 98.1295 357.686 97.6375 357.17C97.1455 356.642 96.4735 356.378 95.6215 356.378C94.7575 356.378 94.0675 356.648 93.5515 357.188C93.0475 357.728 92.7955 358.514 92.7955 359.546V365H91.1575V355.136H92.7955V356.54C93.1195 356.036 93.5575 355.646 94.1095 355.37C94.6735 355.094 95.2915 354.956 95.9635 354.956ZM106.739 354.974C107.591 354.974 108.335 355.16 108.971 355.532C109.619 355.904 110.099 356.372 110.411 356.936V355.136H112.067V365.216C112.067 366.116 111.875 366.914 111.491 367.61C111.107 368.318 110.555 368.87 109.835 369.266C109.127 369.662 108.299 369.86 107.351 369.86C106.055 369.86 104.975 369.554 104.111 368.942C103.247 368.33 102.737 367.496 102.581 366.44H104.201C104.381 367.04 104.753 367.52 105.317 367.88C105.881 368.252 106.559 368.438 107.351 368.438C108.251 368.438 108.983 368.156 109.547 367.592C110.123 367.028 110.411 366.236 110.411 365.216V363.146C110.087 363.722 109.607 364.202 108.971 364.586C108.335 364.97 107.591 365.162 106.739 365.162C105.863 365.162 105.065 364.946 104.345 364.514C103.637 364.082 103.079 363.476 102.671 362.696C102.263 361.916 102.059 361.028 102.059 360.032C102.059 359.024 102.263 358.142 102.671 357.386C103.079 356.618 103.637 356.024 104.345 355.604C105.065 355.184 105.863 354.974 106.739 354.974ZM110.411 360.05C110.411 359.306 110.261 358.658 109.961 358.106C109.661 357.554 109.253 357.134 108.737 356.846C108.233 356.546 107.675 356.396 107.063 356.396C106.451 356.396 105.893 356.54 105.389 356.828C104.885 357.116 104.483 357.536 104.183 358.088C103.883 358.64 103.733 359.288 103.733 360.032C103.733 360.788 103.883 361.448 104.183 362.012C104.483 362.564 104.885 362.99 105.389 363.29C105.893 363.578 106.451 363.722 107.063 363.722C107.675 363.722 108.233 363.578 108.737 363.29C109.253 362.99 109.661 362.564 109.961 362.012C110.261 361.448 110.411 360.794 110.411 360.05Z" fill="black"/>
<path d="M14.152 407.508C14.152 408.54 14.344 409.26 14.728 409.668C15.112 410.052 15.784 410.244 16.744 410.244V411C14.152 410.904 12.496 410.856 11.776 410.856C10.984 410.856 9.256 410.892 6.592 410.964L5.584 411V410.244C6.712 410.244 7.552 410.028 8.104 409.596C8.68 409.164 8.968 408.396 8.968 407.292V398.508C8.968 397.356 8.86 396.516 8.644 395.988C8.452 395.436 8.116 395.076 7.636 394.908C7.156 394.716 6.424 394.62 5.44 394.62V393.828C7.528 393.78 9.244 393.624 10.588 393.36C11.932 393.072 13.12 392.616 14.152 391.992V407.508Z" fill="#E3CDB1"/>
<path d="M71.078 399.234V405.336C71.078 405.936 71.192 406.35 71.42 406.578C71.648 406.806 72.05 406.92 72.626 406.92H73.778V408H72.428C71.54 408 70.88 407.796 70.448 407.388C70.016 406.968 69.8 406.284 69.8 405.336V399.234H68.432V398.172H69.8V395.706H71.078V398.172H73.778V399.234H71.078ZM77.098 400.35C77.422 399.666 77.92 399.108 78.592 398.676C79.276 398.244 80.08 398.028 81.004 398.028C81.904 398.028 82.708 398.238 83.416 398.658C84.124 399.066 84.676 399.654 85.072 400.422C85.48 401.178 85.684 402.06 85.684 403.068C85.684 404.076 85.48 404.964 85.072 405.732C84.676 406.5 84.118 407.094 83.398 407.514C82.69 407.934 81.892 408.144 81.004 408.144C80.068 408.144 79.258 407.934 78.574 407.514C77.902 407.082 77.41 406.524 77.098 405.84V408H75.856V394.68H77.098V400.35ZM84.406 403.068C84.406 402.252 84.244 401.55 83.92 400.962C83.608 400.362 83.176 399.906 82.624 399.594C82.072 399.282 81.448 399.126 80.752 399.126C80.08 399.126 79.462 399.288 78.898 399.612C78.346 399.936 77.908 400.398 77.584 400.998C77.26 401.598 77.098 402.294 77.098 403.086C77.098 403.878 77.26 404.574 77.584 405.174C77.908 405.774 78.346 406.236 78.898 406.56C79.462 406.884 80.08 407.046 80.752 407.046C81.448 407.046 82.072 406.89 82.624 406.578C83.176 406.254 83.608 405.792 83.92 405.192C84.244 404.58 84.406 403.872 84.406 403.068ZM91.3865 408.144C90.2585 408.144 89.3345 407.886 88.6145 407.37C87.9065 406.842 87.5105 406.128 87.4265 405.228H88.7225C88.7825 405.78 89.0405 406.23 89.4965 406.578C89.9645 406.914 90.5885 407.082 91.3685 407.082C92.0525 407.082 92.5865 406.92 92.9705 406.596C93.3665 406.272 93.5645 405.87 93.5645 405.39C93.5645 405.054 93.4565 404.778 93.2405 404.562C93.0245 404.346 92.7485 404.178 92.4125 404.058C92.0885 403.926 91.6445 403.788 91.0805 403.644C90.3485 403.452 89.7545 403.26 89.2985 403.068C88.8425 402.876 88.4525 402.594 88.1285 402.222C87.8165 401.838 87.6605 401.328 87.6605 400.692C87.6605 400.212 87.8045 399.768 88.0925 399.36C88.3805 398.952 88.7885 398.628 89.3165 398.388C89.8445 398.148 90.4445 398.028 91.1165 398.028C92.1725 398.028 93.0245 398.298 93.6725 398.838C94.3205 399.366 94.6685 400.098 94.7165 401.034H93.4565C93.4205 400.458 93.1925 399.996 92.7725 399.648C92.3645 399.288 91.8005 399.108 91.0805 399.108C90.4445 399.108 89.9285 399.258 89.5325 399.558C89.1365 399.858 88.9385 400.23 88.9385 400.674C88.9385 401.058 89.0525 401.376 89.2805 401.628C89.5205 401.868 89.8145 402.06 90.1625 402.204C90.5105 402.336 90.9785 402.486 91.5665 402.654C92.2745 402.846 92.8385 403.032 93.2585 403.212C93.6785 403.392 94.0385 403.656 94.3385 404.004C94.6385 404.352 94.7945 404.814 94.8065 405.39C94.8065 405.918 94.6625 406.392 94.3745 406.812C94.0865 407.22 93.6845 407.544 93.1685 407.784C92.6525 408.024 92.0585 408.144 91.3865 408.144ZM106.42 408.144C105.496 408.144 104.662 407.94 103.918 407.532C103.186 407.112 102.604 406.524 102.172 405.768C101.752 405 101.542 404.106 101.542 403.086C101.542 402.066 101.758 401.178 102.19 400.422C102.622 399.654 103.21 399.066 103.954 398.658C104.698 398.238 105.532 398.028 106.456 398.028C107.38 398.028 108.214 398.238 108.958 398.658C109.714 399.066 110.302 399.654 110.722 400.422C111.154 401.178 111.37 402.066 111.37 403.086C111.37 404.094 111.154 404.982 110.722 405.75C110.29 406.518 109.696 407.112 108.94 407.532C108.184 407.94 107.344 408.144 106.42 408.144ZM106.42 407.046C107.068 407.046 107.668 406.902 108.22 406.614C108.772 406.314 109.216 405.87 109.552 405.282C109.9 404.682 110.074 403.95 110.074 403.086C110.074 402.222 109.906 401.496 109.57 400.908C109.234 400.308 108.79 399.864 108.238 399.576C107.686 399.276 107.086 399.126 106.438 399.126C105.79 399.126 105.19 399.276 104.638 399.576C104.086 399.864 103.642 400.308 103.306 400.908C102.982 401.496 102.82 402.222 102.82 403.086C102.82 403.95 102.982 404.682 103.306 405.282C103.642 405.87 104.08 406.314 104.62 406.614C105.172 406.902 105.772 407.046 106.42 407.046ZM117.537 399.234H115.251V408H113.991V399.234H112.623V398.172H113.991V397.488C113.991 396.42 114.261 395.634 114.801 395.13C115.353 394.626 116.241 394.374 117.465 394.374V395.454C116.649 395.454 116.073 395.61 115.737 395.922C115.413 396.234 115.251 396.756 115.251 397.488V398.172H117.537V399.234ZM137.42 398.172L134.342 408H133.082L130.364 399.756L127.646 408H126.368L123.29 398.172H124.568L127.016 406.722L129.77 398.172H131.03L133.748 406.74L136.178 398.172H137.42ZM138.561 403.068C138.561 402.06 138.759 401.178 139.155 400.422C139.563 399.654 140.121 399.066 140.829 398.658C141.549 398.238 142.359 398.028 143.259 398.028C144.195 398.028 144.999 398.244 145.671 398.676C146.355 399.108 146.847 399.66 147.147 400.332V398.172H148.407V408H147.147V405.822C146.835 406.494 146.337 407.052 145.653 407.496C144.981 407.928 144.177 408.144 143.241 408.144C142.353 408.144 141.549 407.934 140.829 407.514C140.121 407.094 139.563 406.5 139.155 405.732C138.759 404.964 138.561 404.076 138.561 403.068ZM147.147 403.086C147.147 402.294 146.985 401.598 146.661 400.998C146.337 400.398 145.893 399.936 145.329 399.612C144.777 399.288 144.165 399.126 143.493 399.126C142.797 399.126 142.173 399.282 141.621 399.594C141.069 399.906 140.631 400.362 140.307 400.962C139.995 401.55 139.839 402.252 139.839 403.068C139.839 403.872 139.995 404.58 140.307 405.192C140.631 405.792 141.069 406.254 141.621 406.578C142.173 406.89 142.797 407.046 143.493 407.046C144.165 407.046 144.777 406.884 145.329 406.56C145.893 406.236 146.337 405.774 146.661 405.174C146.985 404.574 147.147 403.878 147.147 403.086ZM152.922 399.234V405.336C152.922 405.936 153.036 406.35 153.264 406.578C153.492 406.806 153.894 406.92 154.47 406.92H155.622V408H154.272C153.384 408 152.724 407.796 152.292 407.388C151.86 406.968 151.644 406.284 151.644 405.336V399.234H150.276V398.172H151.644V395.706H152.922V398.172H155.622V399.234H152.922ZM166.592 402.582C166.592 403.014 166.58 403.344 166.556 403.572H158.402C158.438 404.316 158.618 404.952 158.942 405.48C159.266 406.008 159.692 406.41 160.22 406.686C160.748 406.95 161.324 407.082 161.948 407.082C162.764 407.082 163.448 406.884 164 406.488C164.564 406.092 164.936 405.558 165.116 404.886H166.448C166.208 405.846 165.692 406.632 164.9 407.244C164.12 407.844 163.136 408.144 161.948 408.144C161.024 408.144 160.196 407.94 159.464 407.532C158.732 407.112 158.156 406.524 157.736 405.768C157.328 405 157.124 404.106 157.124 403.086C157.124 402.066 157.328 401.172 157.736 400.404C158.144 399.636 158.714 399.048 159.446 398.64C160.178 398.232 161.012 398.028 161.948 398.028C162.884 398.028 163.7 398.232 164.396 398.64C165.104 399.048 165.644 399.6 166.016 400.296C166.4 400.98 166.592 401.742 166.592 402.582ZM165.314 402.546C165.326 401.814 165.176 401.19 164.864 400.674C164.564 400.158 164.15 399.768 163.622 399.504C163.094 399.24 162.518 399.108 161.894 399.108C160.958 399.108 160.16 399.408 159.5 400.008C158.84 400.608 158.474 401.454 158.402 402.546H165.314ZM170.157 399.918C170.433 399.306 170.853 398.832 171.417 398.496C171.993 398.16 172.695 397.992 173.523 397.992V399.306H173.181C172.269 399.306 171.537 399.552 170.985 400.044C170.433 400.536 170.157 401.358 170.157 402.51V408H168.897V398.172H170.157V399.918Z" fill="#9B9B9B"/>
<path d="M9.9 441.884C11.748 441.884 13.212 442.292 14.292 443.108C15.372 443.9 15.912 445.016 15.912 446.456C15.912 447.44 15.624 448.352 15.048 449.192C14.496 450.032 13.836 450.776 13.068 451.424C12.3 452.072 11.244 452.876 9.9 453.836C8.172 455.036 6.96 455.996 6.264 456.716H14.04C14.688 456.716 15.168 456.668 15.48 456.572C15.816 456.476 16.044 456.32 16.164 456.104C16.284 455.888 16.38 455.552 16.452 455.096H17.208C17.208 457.928 17.256 459.956 17.352 461.18C16.824 461.06 15.036 461 11.988 461H1.512V460.316C1.824 459.98 2.436 459.404 3.348 458.588C4.74 457.316 5.892 456.188 6.804 455.204C7.74 454.196 8.544 453.044 9.216 451.748C9.912 450.428 10.26 449.06 10.26 447.644C10.26 446.372 9.972 445.448 9.396 444.872C8.844 444.272 8.016 443.972 6.912 443.972C5.904 443.972 5.004 444.212 4.212 444.692C3.444 445.148 2.736 445.832 2.088 446.744L1.476 446.384C3.252 443.384 6.06 441.884 9.9 441.884Z" fill="#E3CDB1"/>
<path d="M64.864 453.086C64.864 452.066 65.068 451.178 65.476 450.422C65.884 449.654 66.448 449.066 67.168 448.658C67.888 448.238 68.71 448.028 69.634 448.028C70.846 448.028 71.842 448.328 72.622 448.928C73.414 449.528 73.924 450.344 74.152 451.376H72.802C72.634 450.668 72.268 450.116 71.704 449.72C71.152 449.312 70.462 449.108 69.634 449.108C68.974 449.108 68.38 449.258 67.852 449.558C67.324 449.858 66.904 450.308 66.592 450.908C66.292 451.496 66.142 452.222 66.142 453.086C66.142 453.95 66.292 454.682 66.592 455.282C66.904 455.882 67.324 456.332 67.852 456.632C68.38 456.932 68.974 457.082 69.634 457.082C70.462 457.082 71.152 456.884 71.704 456.488C72.268 456.08 72.634 455.516 72.802 454.796H74.152C73.924 455.804 73.414 456.614 72.622 457.226C71.83 457.838 70.834 458.144 69.634 458.144C68.71 458.144 67.888 457.94 67.168 457.532C66.448 457.112 65.884 456.524 65.476 455.768C65.068 455 64.864 454.106 64.864 453.086ZM84.9931 448.172V458H83.7331V456.272C83.4451 456.884 83.0011 457.352 82.4011 457.676C81.8011 458 81.1291 458.162 80.3851 458.162C79.2091 458.162 78.2491 457.802 77.5051 457.082C76.7611 456.35 76.3891 455.294 76.3891 453.914V448.172H77.6311V453.77C77.6311 454.838 77.8951 455.654 78.4231 456.218C78.9631 456.782 79.6951 457.064 80.6191 457.064C81.5671 457.064 82.3231 456.764 82.8871 456.164C83.4511 455.564 83.7331 454.682 83.7331 453.518V448.172H84.9931ZM89.1117 450.332C89.4237 449.672 89.9157 449.126 90.5877 448.694C91.2717 448.25 92.0817 448.028 93.0177 448.028C93.9057 448.028 94.7037 448.238 95.4117 448.658C96.1317 449.066 96.6897 449.654 97.0857 450.422C97.4937 451.178 97.6977 452.06 97.6977 453.068C97.6977 454.076 97.4937 454.964 97.0857 455.732C96.6897 456.5 96.1317 457.094 95.4117 457.514C94.7037 457.934 93.9057 458.144 93.0177 458.144C92.0937 458.144 91.2897 457.928 90.6057 457.496C89.9217 457.052 89.4237 456.5 89.1117 455.84V462.644H87.8697V448.172H89.1117V450.332ZM96.4197 453.068C96.4197 452.252 96.2577 451.55 95.9337 450.962C95.6217 450.362 95.1897 449.906 94.6377 449.594C94.0857 449.282 93.4617 449.126 92.7657 449.126C92.0937 449.126 91.4757 449.288 90.9117 449.612C90.3597 449.936 89.9217 450.398 89.5977 450.998C89.2737 451.598 89.1117 452.294 89.1117 453.086C89.1117 453.878 89.2737 454.574 89.5977 455.174C89.9217 455.774 90.3597 456.236 90.9117 456.56C91.4757 456.884 92.0937 457.046 92.7657 457.046C93.4617 457.046 94.0857 456.89 94.6377 456.578C95.1897 456.254 95.6217 455.792 95.9337 455.192C96.2577 454.58 96.4197 453.872 96.4197 453.068ZM103.4 458.144C102.272 458.144 101.348 457.886 100.628 457.37C99.9202 456.842 99.5242 456.128 99.4402 455.228H100.736C100.796 455.78 101.054 456.23 101.51 456.578C101.978 456.914 102.602 457.082 103.382 457.082C104.066 457.082 104.6 456.92 104.984 456.596C105.38 456.272 105.578 455.87 105.578 455.39C105.578 455.054 105.47 454.778 105.254 454.562C105.038 454.346 104.762 454.178 104.426 454.058C104.102 453.926 103.658 453.788 103.094 453.644C102.362 453.452 101.768 453.26 101.312 453.068C100.856 452.876 100.466 452.594 100.142 452.222C99.8302 451.838 99.6742 451.328 99.6742 450.692C99.6742 450.212 99.8182 449.768 100.106 449.36C100.394 448.952 100.802 448.628 101.33 448.388C101.858 448.148 102.458 448.028 103.13 448.028C104.186 448.028 105.038 448.298 105.686 448.838C106.334 449.366 106.682 450.098 106.73 451.034H105.47C105.434 450.458 105.206 449.996 104.786 449.648C104.378 449.288 103.814 449.108 103.094 449.108C102.458 449.108 101.942 449.258 101.546 449.558C101.15 449.858 100.952 450.23 100.952 450.674C100.952 451.058 101.066 451.376 101.294 451.628C101.534 451.868 101.828 452.06 102.176 452.204C102.524 452.336 102.992 452.486 103.58 452.654C104.288 452.846 104.852 453.032 105.272 453.212C105.692 453.392 106.052 453.656 106.352 454.004C106.652 454.352 106.808 454.814 106.82 455.39C106.82 455.918 106.676 456.392 106.388 456.812C106.1 457.22 105.698 457.544 105.182 457.784C104.666 458.024 104.072 458.144 103.4 458.144ZM118.433 458.144C117.509 458.144 116.675 457.94 115.931 457.532C115.199 457.112 114.617 456.524 114.185 455.768C113.765 455 113.555 454.106 113.555 453.086C113.555 452.066 113.771 451.178 114.203 450.422C114.635 449.654 115.223 449.066 115.967 448.658C116.711 448.238 117.545 448.028 118.469 448.028C119.393 448.028 120.227 448.238 120.971 448.658C121.727 449.066 122.315 449.654 122.735 450.422C123.167 451.178 123.383 452.066 123.383 453.086C123.383 454.094 123.167 454.982 122.735 455.75C122.303 456.518 121.709 457.112 120.953 457.532C120.197 457.94 119.357 458.144 118.433 458.144ZM118.433 457.046C119.081 457.046 119.681 456.902 120.233 456.614C120.785 456.314 121.229 455.87 121.565 455.282C121.913 454.682 122.087 453.95 122.087 453.086C122.087 452.222 121.919 451.496 121.583 450.908C121.247 450.308 120.803 449.864 120.251 449.576C119.699 449.276 119.099 449.126 118.451 449.126C117.803 449.126 117.203 449.276 116.651 449.576C116.099 449.864 115.655 450.308 115.319 450.908C114.995 451.496 114.833 452.222 114.833 453.086C114.833 453.95 114.995 454.682 115.319 455.282C115.655 455.87 116.093 456.314 116.633 456.614C117.185 456.902 117.785 457.046 118.433 457.046ZM129.55 449.234H127.264V458H126.004V449.234H124.636V448.172H126.004V447.488C126.004 446.42 126.274 445.634 126.814 445.13C127.366 444.626 128.254 444.374 129.478 444.374V445.454C128.662 445.454 128.086 445.61 127.75 445.922C127.426 446.234 127.264 446.756 127.264 447.488V448.172H129.55V449.234ZM140.343 449.234H138.057V458H136.797V449.234H135.429V448.172H136.797V447.488C136.797 446.42 137.067 445.634 137.607 445.13C138.159 444.626 139.047 444.374 140.271 444.374V445.454C139.455 445.454 138.879 445.61 138.543 445.922C138.219 446.234 138.057 446.756 138.057 447.488V448.172H140.343V449.234ZM143.587 444.68V458H142.327V444.68H143.587ZM150.742 458.144C149.818 458.144 148.984 457.94 148.24 457.532C147.508 457.112 146.926 456.524 146.494 455.768C146.074 455 145.864 454.106 145.864 453.086C145.864 452.066 146.08 451.178 146.512 450.422C146.944 449.654 147.532 449.066 148.276 448.658C149.02 448.238 149.854 448.028 150.778 448.028C151.702 448.028 152.536 448.238 153.28 448.658C154.036 449.066 154.624 449.654 155.044 450.422C155.476 451.178 155.692 452.066 155.692 453.086C155.692 454.094 155.476 454.982 155.044 455.75C154.612 456.518 154.018 457.112 153.262 457.532C152.506 457.94 151.666 458.144 150.742 458.144ZM150.742 457.046C151.39 457.046 151.99 456.902 152.542 456.614C153.094 456.314 153.538 455.87 153.874 455.282C154.222 454.682 154.396 453.95 154.396 453.086C154.396 452.222 154.228 451.496 153.892 450.908C153.556 450.308 153.112 449.864 152.56 449.576C152.008 449.276 151.408 449.126 150.76 449.126C150.112 449.126 149.512 449.276 148.96 449.576C148.408 449.864 147.964 450.308 147.628 450.908C147.304 451.496 147.142 452.222 147.142 453.086C147.142 453.95 147.304 454.682 147.628 455.282C147.964 455.87 148.402 456.314 148.942 456.614C149.494 456.902 150.094 457.046 150.742 457.046ZM166.503 448.172V458H165.243V456.272C164.955 456.884 164.511 457.352 163.911 457.676C163.311 458 162.639 458.162 161.895 458.162C160.719 458.162 159.759 457.802 159.015 457.082C158.271 456.35 157.899 455.294 157.899 453.914V448.172H159.141V453.77C159.141 454.838 159.405 455.654 159.933 456.218C160.473 456.782 161.205 457.064 162.129 457.064C163.077 457.064 163.833 456.764 164.397 456.164C164.961 455.564 165.243 454.682 165.243 453.518V448.172H166.503ZM170.639 449.918C170.915 449.306 171.335 448.832 171.899 448.496C172.475 448.16 173.177 447.992 174.005 447.992V449.306H173.663C172.751 449.306 172.019 449.552 171.467 450.044C170.915 450.536 170.639 451.358 170.639 452.51V458H169.379V448.172H170.639V449.918Z" fill="#9B9B9B"/>
<path d="M9.9 491.884C11.748 491.884 13.212 492.292 14.292 493.108C15.372 493.9 15.912 495.016 15.912 496.456C15.912 497.44 15.624 498.352 15.048 499.192C14.496 500.032 13.836 500.776 13.068 501.424C12.3 502.072 11.244 502.876 9.9 503.836C8.172 505.036 6.96 505.996 6.264 506.716H14.04C14.688 506.716 15.168 506.668 15.48 506.572C15.816 506.476 16.044 506.32 16.164 506.104C16.284 505.888 16.38 505.552 16.452 505.096H17.208C17.208 507.928 17.256 509.956 17.352 511.18C16.824 511.06 15.036 511 11.988 511H1.512V510.316C1.824 509.98 2.436 509.404 3.348 508.588C4.74 507.316 5.892 506.188 6.804 505.204C7.74 504.196 8.544 503.044 9.216 501.748C9.912 500.428 10.26 499.06 10.26 497.644C10.26 496.372 9.972 495.448 9.396 494.872C8.844 494.272 8.016 493.972 6.912 493.972C5.904 493.972 5.004 494.212 4.212 494.692C3.444 495.148 2.736 495.832 2.088 496.744L1.476 496.384C3.252 493.384 6.06 491.884 9.9 491.884Z" fill="#E3CDB1"/>
<path d="M74.332 502.582C74.332 503.014 74.32 503.344 74.296 503.572H66.142C66.178 504.316 66.358 504.952 66.682 505.48C67.006 506.008 67.432 506.41 67.96 506.686C68.488 506.95 69.064 507.082 69.688 507.082C70.504 507.082 71.188 506.884 71.74 506.488C72.304 506.092 72.676 505.558 72.856 504.886H74.188C73.948 505.846 73.432 506.632 72.64 507.244C71.86 507.844 70.876 508.144 69.688 508.144C68.764 508.144 67.936 507.94 67.204 507.532C66.472 507.112 65.896 506.524 65.476 505.768C65.068 505 64.864 504.106 64.864 503.086C64.864 502.066 65.068 501.172 65.476 500.404C65.884 499.636 66.454 499.048 67.186 498.64C67.918 498.232 68.752 498.028 69.688 498.028C70.624 498.028 71.44 498.232 72.136 498.64C72.844 499.048 73.384 499.6 73.756 500.296C74.14 500.98 74.332 501.742 74.332 502.582ZM73.054 502.546C73.066 501.814 72.916 501.19 72.604 500.674C72.304 500.158 71.89 499.768 71.362 499.504C70.834 499.24 70.258 499.108 69.634 499.108C68.698 499.108 67.9 499.408 67.24 500.008C66.58 500.608 66.214 501.454 66.142 502.546H73.054ZM80.7593 498.028C81.6833 498.028 82.4873 498.244 83.1713 498.676C83.8553 499.108 84.3473 499.654 84.6473 500.314V498.172H85.9073V508.252C85.9073 509.152 85.7093 509.95 85.3133 510.646C84.9293 511.342 84.3893 511.876 83.6933 512.248C82.9973 512.632 82.2053 512.824 81.3173 512.824C80.0573 512.824 79.0073 512.524 78.1673 511.924C77.3393 511.324 76.8233 510.508 76.6193 509.476H77.8613C78.0773 510.16 78.4853 510.706 79.0853 511.114C79.6973 511.522 80.4413 511.726 81.3173 511.726C81.9533 511.726 82.5233 511.588 83.0273 511.312C83.5313 511.048 83.9273 510.652 84.2153 510.124C84.5033 509.596 84.6473 508.972 84.6473 508.252V505.822C84.3353 506.494 83.8373 507.052 83.1533 507.496C82.4813 507.928 81.6833 508.144 80.7593 508.144C79.8593 508.144 79.0493 507.934 78.3293 507.514C77.6213 507.094 77.0633 506.5 76.6553 505.732C76.2593 504.964 76.0613 504.076 76.0613 503.068C76.0613 502.06 76.2593 501.178 76.6553 500.422C77.0633 499.654 77.6213 499.066 78.3293 498.658C79.0493 498.238 79.8593 498.028 80.7593 498.028ZM84.6473 503.086C84.6473 502.294 84.4853 501.598 84.1613 500.998C83.8373 500.398 83.3933 499.936 82.8293 499.612C82.2773 499.288 81.6653 499.126 80.9933 499.126C80.2973 499.126 79.6733 499.282 79.1213 499.594C78.5693 499.906 78.1313 500.362 77.8073 500.962C77.4953 501.55 77.3393 502.252 77.3393 503.068C77.3393 503.872 77.4953 504.58 77.8073 505.192C78.1313 505.792 78.5693 506.254 79.1213 506.578C79.6733 506.89 80.2973 507.046 80.9933 507.046C81.6653 507.046 82.2773 506.884 82.8293 506.56C83.3933 506.236 83.8373 505.774 84.1613 505.174C84.4853 504.574 84.6473 503.878 84.6473 503.086ZM92.9058 498.028C93.8298 498.028 94.6338 498.244 95.3178 498.676C96.0018 499.108 96.4938 499.654 96.7938 500.314V498.172H98.0538V508.252C98.0538 509.152 97.8558 509.95 97.4598 510.646C97.0758 511.342 96.5358 511.876 95.8398 512.248C95.1438 512.632 94.3518 512.824 93.4638 512.824C92.2038 512.824 91.1538 512.524 90.3138 511.924C89.4858 511.324 88.9698 510.508 88.7658 509.476H90.0078C90.2238 510.16 90.6318 510.706 91.2318 511.114C91.8438 511.522 92.5878 511.726 93.4638 511.726C94.0998 511.726 94.6698 511.588 95.1738 511.312C95.6778 511.048 96.0738 510.652 96.3618 510.124C96.6498 509.596 96.7938 508.972 96.7938 508.252V505.822C96.4818 506.494 95.9838 507.052 95.2998 507.496C94.6278 507.928 93.8298 508.144 92.9058 508.144C92.0058 508.144 91.1958 507.934 90.4758 507.514C89.7678 507.094 89.2098 506.5 88.8018 505.732C88.4058 504.964 88.2078 504.076 88.2078 503.068C88.2078 502.06 88.4058 501.178 88.8018 500.422C89.2098 499.654 89.7678 499.066 90.4758 498.658C91.1958 498.238 92.0058 498.028 92.9058 498.028ZM96.7938 503.086C96.7938 502.294 96.6318 501.598 96.3078 500.998C95.9838 500.398 95.5398 499.936 94.9758 499.612C94.4238 499.288 93.8118 499.126 93.1398 499.126C92.4438 499.126 91.8198 499.282 91.2678 499.594C90.7158 499.906 90.2778 500.362 89.9538 500.962C89.6418 501.55 89.4858 502.252 89.4858 503.068C89.4858 503.872 89.6418 504.58 89.9538 505.192C90.2778 505.792 90.7158 506.254 91.2678 506.578C91.8198 506.89 92.4438 507.046 93.1398 507.046C93.8118 507.046 94.4238 506.884 94.9758 506.56C95.5398 506.236 95.9838 505.774 96.3078 505.174C96.6318 504.574 96.7938 503.878 96.7938 503.086ZM104.314 508.144C103.186 508.144 102.262 507.886 101.542 507.37C100.834 506.842 100.438 506.128 100.354 505.228H101.65C101.71 505.78 101.968 506.23 102.424 506.578C102.892 506.914 103.516 507.082 104.296 507.082C104.98 507.082 105.514 506.92 105.898 506.596C106.294 506.272 106.492 505.87 106.492 505.39C106.492 505.054 106.384 504.778 106.168 504.562C105.952 504.346 105.676 504.178 105.34 504.058C105.016 503.926 104.572 503.788 104.008 503.644C103.276 503.452 102.682 503.26 102.226 503.068C101.77 502.876 101.38 502.594 101.056 502.222C100.744 501.838 100.588 501.328 100.588 500.692C100.588 500.212 100.732 499.768 101.02 499.36C101.308 498.952 101.716 498.628 102.244 498.388C102.772 498.148 103.372 498.028 104.044 498.028C105.1 498.028 105.952 498.298 106.6 498.838C107.248 499.366 107.596 500.098 107.644 501.034H106.384C106.348 500.458 106.12 499.996 105.7 499.648C105.292 499.288 104.728 499.108 104.008 499.108C103.372 499.108 102.856 499.258 102.46 499.558C102.064 499.858 101.866 500.23 101.866 500.674C101.866 501.058 101.98 501.376 102.208 501.628C102.448 501.868 102.742 502.06 103.09 502.204C103.438 502.336 103.906 502.486 104.494 502.654C105.202 502.846 105.766 503.032 106.186 503.212C106.606 503.392 106.966 503.656 107.266 504.004C107.566 504.352 107.722 504.814 107.734 505.39C107.734 505.918 107.59 506.392 107.302 506.812C107.014 507.22 106.612 507.544 106.096 507.784C105.58 508.024 104.986 508.144 104.314 508.144Z" fill="#9B9B9B"/>
<path d="M10.152 557.508C10.152 558.54 10.344 559.26 10.728 559.668C11.112 560.052 11.784 560.244 12.744 560.244V561C10.152 560.904 8.496 560.856 7.776 560.856C6.984 560.856 5.256 560.892 2.592 560.964L1.584 561V560.244C2.712 560.244 3.552 560.028 4.104 559.596C4.68 559.164 4.968 558.396 4.968 557.292V548.508C4.968 547.356 4.86 546.516 4.644 545.988C4.452 545.436 4.116 545.076 3.636 544.908C3.156 544.716 2.424 544.62 1.44 544.62V543.828C3.528 543.78 5.244 543.624 6.588 543.36C7.932 543.072 9.12 542.616 10.152 541.992V557.508Z" fill="#E3CDB1"/>
<path d="M64.864 553.086C64.864 552.066 65.068 551.178 65.476 550.422C65.884 549.654 66.448 549.066 67.168 548.658C67.888 548.238 68.71 548.028 69.634 548.028C70.846 548.028 71.842 548.328 72.622 548.928C73.414 549.528 73.924 550.344 74.152 551.376H72.802C72.634 550.668 72.268 550.116 71.704 549.72C71.152 549.312 70.462 549.108 69.634 549.108C68.974 549.108 68.38 549.258 67.852 549.558C67.324 549.858 66.904 550.308 66.592 550.908C66.292 551.496 66.142 552.222 66.142 553.086C66.142 553.95 66.292 554.682 66.592 555.282C66.904 555.882 67.324 556.332 67.852 556.632C68.38 556.932 68.974 557.082 69.634 557.082C70.462 557.082 71.152 556.884 71.704 556.488C72.268 556.08 72.634 555.516 72.802 554.796H74.152C73.924 555.804 73.414 556.614 72.622 557.226C71.83 557.838 70.834 558.144 69.634 558.144C68.71 558.144 67.888 557.94 67.168 557.532C66.448 557.112 65.884 556.524 65.476 555.768C65.068 555 64.864 554.106 64.864 553.086ZM84.9931 548.172V558H83.7331V556.272C83.4451 556.884 83.0011 557.352 82.4011 557.676C81.8011 558 81.1291 558.162 80.3851 558.162C79.2091 558.162 78.2491 557.802 77.5051 557.082C76.7611 556.35 76.3891 555.294 76.3891 553.914V548.172H77.6311V553.77C77.6311 554.838 77.8951 555.654 78.4231 556.218C78.9631 556.782 79.6951 557.064 80.6191 557.064C81.5671 557.064 82.3231 556.764 82.8871 556.164C83.4511 555.564 83.7331 554.682 83.7331 553.518V548.172H84.9931ZM89.1117 550.332C89.4237 549.672 89.9157 549.126 90.5877 548.694C91.2717 548.25 92.0817 548.028 93.0177 548.028C93.9057 548.028 94.7037 548.238 95.4117 548.658C96.1317 549.066 96.6897 549.654 97.0857 550.422C97.4937 551.178 97.6977 552.06 97.6977 553.068C97.6977 554.076 97.4937 554.964 97.0857 555.732C96.6897 556.5 96.1317 557.094 95.4117 557.514C94.7037 557.934 93.9057 558.144 93.0177 558.144C92.0937 558.144 91.2897 557.928 90.6057 557.496C89.9217 557.052 89.4237 556.5 89.1117 555.84V562.644H87.8697V548.172H89.1117V550.332ZM96.4197 553.068C96.4197 552.252 96.2577 551.55 95.9337 550.962C95.6217 550.362 95.1897 549.906 94.6377 549.594C94.0857 549.282 93.4617 549.126 92.7657 549.126C92.0937 549.126 91.4757 549.288 90.9117 549.612C90.3597 549.936 89.9217 550.398 89.5977 550.998C89.2737 551.598 89.1117 552.294 89.1117 553.086C89.1117 553.878 89.2737 554.574 89.5977 555.174C89.9217 555.774 90.3597 556.236 90.9117 556.56C91.4757 556.884 92.0937 557.046 92.7657 557.046C93.4617 557.046 94.0857 556.89 94.6377 556.578C95.1897 556.254 95.6217 555.792 95.9337 555.192C96.2577 554.58 96.4197 553.872 96.4197 553.068ZM109.258 558.144C108.334 558.144 107.5 557.94 106.756 557.532C106.024 557.112 105.442 556.524 105.01 555.768C104.59 555 104.38 554.106 104.38 553.086C104.38 552.066 104.596 551.178 105.028 550.422C105.46 549.654 106.048 549.066 106.792 548.658C107.536 548.238 108.37 548.028 109.294 548.028C110.218 548.028 111.052 548.238 111.796 548.658C112.552 549.066 113.14 549.654 113.56 550.422C113.992 551.178 114.208 552.066 114.208 553.086C114.208 554.094 113.992 554.982 113.56 555.75C113.128 556.518 112.534 557.112 111.778 557.532C111.022 557.94 110.182 558.144 109.258 558.144ZM109.258 557.046C109.906 557.046 110.506 556.902 111.058 556.614C111.61 556.314 112.054 555.87 112.39 555.282C112.738 554.682 112.912 553.95 112.912 553.086C112.912 552.222 112.744 551.496 112.408 550.908C112.072 550.308 111.628 549.864 111.076 549.576C110.524 549.276 109.924 549.126 109.276 549.126C108.628 549.126 108.028 549.276 107.476 549.576C106.924 549.864 106.48 550.308 106.144 550.908C105.82 551.496 105.658 552.222 105.658 553.086C105.658 553.95 105.82 554.682 106.144 555.282C106.48 555.87 106.918 556.314 107.458 556.614C108.01 556.902 108.61 557.046 109.258 557.046ZM120.374 549.234H118.088V558H116.828V549.234H115.46V548.172H116.828V547.488C116.828 546.42 117.098 545.634 117.638 545.13C118.19 544.626 119.078 544.374 120.302 544.374V545.454C119.486 545.454 118.91 545.61 118.574 545.922C118.25 546.234 118.088 546.756 118.088 547.488V548.172H120.374V549.234ZM130.681 558.144C129.553 558.144 128.629 557.886 127.909 557.37C127.201 556.842 126.805 556.128 126.721 555.228H128.017C128.077 555.78 128.335 556.23 128.791 556.578C129.259 556.914 129.883 557.082 130.663 557.082C131.347 557.082 131.881 556.92 132.265 556.596C132.661 556.272 132.859 555.87 132.859 555.39C132.859 555.054 132.751 554.778 132.535 554.562C132.319 554.346 132.043 554.178 131.707 554.058C131.383 553.926 130.939 553.788 130.375 553.644C129.643 553.452 129.049 553.26 128.593 553.068C128.137 552.876 127.747 552.594 127.423 552.222C127.111 551.838 126.955 551.328 126.955 550.692C126.955 550.212 127.099 549.768 127.387 549.36C127.675 548.952 128.083 548.628 128.611 548.388C129.139 548.148 129.739 548.028 130.411 548.028C131.467 548.028 132.319 548.298 132.967 548.838C133.615 549.366 133.963 550.098 134.011 551.034H132.751C132.715 550.458 132.487 549.996 132.067 549.648C131.659 549.288 131.095 549.108 130.375 549.108C129.739 549.108 129.223 549.258 128.827 549.558C128.431 549.858 128.233 550.23 128.233 550.674C128.233 551.058 128.347 551.376 128.575 551.628C128.815 551.868 129.109 552.06 129.457 552.204C129.805 552.336 130.273 552.486 130.861 552.654C131.569 552.846 132.133 553.032 132.553 553.212C132.973 553.392 133.333 553.656 133.633 554.004C133.933 554.352 134.089 554.814 134.101 555.39C134.101 555.918 133.957 556.392 133.669 556.812C133.381 557.22 132.979 557.544 132.463 557.784C131.947 558.024 131.353 558.144 130.681 558.144ZM144.987 548.172V558H143.727V556.272C143.439 556.884 142.995 557.352 142.395 557.676C141.795 558 141.123 558.162 140.379 558.162C139.203 558.162 138.243 557.802 137.499 557.082C136.755 556.35 136.383 555.294 136.383 553.914V548.172H137.625V553.77C137.625 554.838 137.889 555.654 138.417 556.218C138.957 556.782 139.689 557.064 140.613 557.064C141.561 557.064 142.317 556.764 142.881 556.164C143.445 555.564 143.727 554.682 143.727 553.518V548.172H144.987ZM151.986 548.028C152.91 548.028 153.714 548.244 154.398 548.676C155.082 549.108 155.574 549.654 155.874 550.314V548.172H157.134V558.252C157.134 559.152 156.936 559.95 156.54 560.646C156.156 561.342 155.616 561.876 154.92 562.248C154.224 562.632 153.432 562.824 152.544 562.824C151.284 562.824 150.234 562.524 149.394 561.924C148.566 561.324 148.05 560.508 147.846 559.476H149.088C149.304 560.16 149.712 560.706 150.312 561.114C150.924 561.522 151.668 561.726 152.544 561.726C153.18 561.726 153.75 561.588 154.254 561.312C154.758 561.048 155.154 560.652 155.442 560.124C155.73 559.596 155.874 558.972 155.874 558.252V555.822C155.562 556.494 155.064 557.052 154.38 557.496C153.708 557.928 152.91 558.144 151.986 558.144C151.086 558.144 150.276 557.934 149.556 557.514C148.848 557.094 148.29 556.5 147.882 555.732C147.486 554.964 147.288 554.076 147.288 553.068C147.288 552.06 147.486 551.178 147.882 550.422C148.29 549.654 148.848 549.066 149.556 548.658C150.276 548.238 151.086 548.028 151.986 548.028ZM155.874 553.086C155.874 552.294 155.712 551.598 155.388 550.998C155.064 550.398 154.62 549.936 154.056 549.612C153.504 549.288 152.892 549.126 152.22 549.126C151.524 549.126 150.9 549.282 150.348 549.594C149.796 549.906 149.358 550.362 149.034 550.962C148.722 551.55 148.566 552.252 148.566 553.068C148.566 553.872 148.722 554.58 149.034 555.192C149.358 555.792 149.796 556.254 150.348 556.578C150.9 556.89 151.524 557.046 152.22 557.046C152.892 557.046 153.504 556.884 154.056 556.56C154.62 556.236 155.064 555.774 155.388 555.174C155.712 554.574 155.874 553.878 155.874 553.086ZM159.434 553.068C159.434 552.06 159.632 551.178 160.028 550.422C160.436 549.654 160.994 549.066 161.702 548.658C162.422 548.238 163.232 548.028 164.132 548.028C165.068 548.028 165.872 548.244 166.544 548.676C167.228 549.108 167.72 549.66 168.02 550.332V548.172H169.28V558H168.02V555.822C167.708 556.494 167.21 557.052 166.526 557.496C165.854 557.928 165.05 558.144 164.114 558.144C163.226 558.144 162.422 557.934 161.702 557.514C160.994 557.094 160.436 556.5 160.028 555.732C159.632 554.964 159.434 554.076 159.434 553.068ZM168.02 553.086C168.02 552.294 167.858 551.598 167.534 550.998C167.21 550.398 166.766 549.936 166.202 549.612C165.65 549.288 165.038 549.126 164.366 549.126C163.67 549.126 163.046 549.282 162.494 549.594C161.942 549.906 161.504 550.362 161.18 550.962C160.868 551.55 160.712 552.252 160.712 553.068C160.712 553.872 160.868 554.58 161.18 555.192C161.504 555.792 161.942 556.254 162.494 556.578C163.046 556.89 163.67 557.046 164.366 557.046C165.038 557.046 165.65 556.884 166.202 556.56C166.766 556.236 167.21 555.774 167.534 555.174C167.858 554.574 168.02 553.878 168.02 553.086ZM173.417 549.918C173.693 549.306 174.113 548.832 174.677 548.496C175.253 548.16 175.955 547.992 176.783 547.992V549.306H176.441C175.529 549.306 174.797 549.552 174.245 550.044C173.693 550.536 173.417 551.358 173.417 552.51V558H172.157V548.172H173.417V549.918Z" fill="#9B9B9B"/>
</svg>
